<svg width="56" height="56" viewBox="0 0 56 56" fill="none" xmlns="http://www.w3.org/2000/svg">
<path d="M28 56C43.464 56 56 43.464 56 28C56 12.536 43.464 0 28 0C12.536 0 0 12.536 0 28C0 43.464 12.536 56 28 56Z" fill="#B3B2B7"/>
<path d="M37.9864 37.7272C36.644 39.732 35.2216 41.6888 33.0544 41.7216C30.8872 41.7704 30.192 40.4416 27.7344 40.4416C25.26 40.4416 24.5 41.6864 22.4464 41.7672C20.328 41.8472 18.7272 39.6328 17.3688 37.676C14.604 33.6848 12.4888 26.3272 15.3312 21.3784C15.9954 20.183 16.9585 19.1806 18.1263 18.4692C19.2942 17.7578 20.6268 17.3618 21.9936 17.32C24.0632 17.288 26.036 18.7272 27.3136 18.7272C28.5752 18.7272 30.968 16.9968 33.4736 17.256C34.6356 17.2973 35.772 17.6078 36.7935 18.1631C37.815 18.7184 38.6936 19.5033 39.36 20.456C38.3102 21.1086 37.4415 22.0149 36.8339 23.0914C36.2263 24.1679 35.8994 25.38 35.8832 26.616C35.8891 28.0091 36.3025 29.3699 37.0726 30.5308C37.8427 31.6917 38.9357 32.6017 40.2168 33.1488C39.6953 34.7728 38.9439 36.3137 37.9856 37.7248M28.7528 11.8544C29.9778 10.4788 31.6745 9.61313 33.5072 9.4288C33.5802 10.3569 33.4694 11.2902 33.1812 12.1754C32.8929 13.0605 32.4328 13.8801 31.8272 14.5872C31.2657 15.3148 30.542 15.9013 29.7138 16.2999C28.8856 16.6985 27.9758 16.8982 27.0568 16.8832C26.9942 15.9746 27.1118 15.0625 27.4029 14.1995C27.694 13.3365 28.1527 12.5395 28.7528 11.8544Z" fill="white"/>
</svg>
