<svg width="15" height="21" viewBox="0 0 15 21" fill="none" xmlns="http://www.w3.org/2000/svg">
<path d="M11.58 2H8V0H15V7H13V3.41L9.17 7.24C9.69 8.03 10 9 10 10C10 12.42 8.28 14.44 6 14.9V17H8V19H6V21H4V19H2V17H4V14.9C1.72 14.44 0 12.42 0 10C0 8.67392 0.526784 7.40215 1.46447 6.46447C2.40215 5.52678 3.67392 5 5 5C6 5 6.96 5.3 7.75 5.83L11.58 2ZM5 7C4.20435 7 3.44129 7.31607 2.87868 7.87868C2.31607 8.44129 2 9.20435 2 10C2 10.7956 2.31607 11.5587 2.87868 12.1213C3.44129 12.6839 4.20435 13 5 13C5.79565 13 6.55871 12.6839 7.12132 12.1213C7.68393 11.5587 8 10.7956 8 10C8 9.20435 7.68393 8.44129 7.12132 7.87868C6.55871 7.31607 5.79565 7 5 7Z" fill="#EEEEEE"/>
</svg>
