<svg width="18" height="18" viewBox="0 0 18 18" fill="none" xmlns="http://www.w3.org/2000/svg">
<path fill-rule="evenodd" clip-rule="evenodd" d="M15.3847 2.4655C13.7666 0.902192 11.5057 0 8.91234 0C6.32995 0 4.0836 0.898539 2.4655 2.44724C2.59334 2.59334 2.72484 2.73579 2.86364 2.87094C4.41599 4.42329 6.56372 5.38393 8.93425 5.38393C11.3048 5.38393 13.4525 4.42329 15.0049 2.87094C15.1327 2.7431 15.2605 2.6043 15.3847 2.4655ZM15.9472 14.9209C17.2476 13.3831 18.0073 11.3486 18.0073 9C18.0073 6.64042 17.2512 4.60958 15.9509 3.07549C15.834 3.20698 15.7098 3.33848 15.5856 3.46266C13.8835 5.16477 11.5276 6.22038 8.9306 6.22038C6.32995 6.22038 3.97768 5.16477 2.27557 3.46266C2.14407 3.33117 2.01623 3.19603 1.89204 3.05723C0.960633 4.14935 0.303166 5.49351 0 7.0276C0.865665 7.61567 1.67289 8.02111 2.46185 7.98823H7.49148V9.00365V10.0191H2.4655C1.67654 9.98255 0.865665 10.388 0.00365171 10.9797C0.306817 12.5138 0.964286 13.858 1.8957 14.9501C2.01989 14.8113 2.14773 14.6761 2.27922 14.5446C3.98133 12.8425 6.33725 11.7869 8.93425 11.7869C11.5349 11.7869 13.8872 12.8425 15.5893 14.5446C15.7098 14.6615 15.8304 14.7894 15.9472 14.9209ZM8.90868 18C11.502 18 13.7593 17.0905 15.3774 15.5308C15.2569 15.392 15.1291 15.2569 14.9976 15.1291C13.4452 13.5767 11.2975 12.6161 8.92695 12.6161C6.55641 12.6161 4.40868 13.5767 2.85633 15.1291C2.71753 15.2679 2.58604 15.4067 2.4582 15.5528C4.07995 17.0978 6.32995 18 8.90868 18Z" fill="#E5B547"/>
</svg>
