<svg width="138" height="24" viewBox="0 0 138 24" fill="none" xmlns="http://www.w3.org/2000/svg">
<path fill-rule="evenodd" clip-rule="evenodd" d="M88.7993 0.200364H88.3061C87.8437 0.18495 87.5508 0.231192 87.3813 0.832332L85.2233 7.92269L85.023 7.29072L82.8496 0.215778H80.4604L83.7744 11.175H85.1154H85.6241C86.3948 11.175 86.5335 11.0363 86.7493 10.281L86.9497 9.61821L88.7993 3.43727L90.649 9.61821L90.8494 10.281C91.0498 11.0363 91.1885 11.175 91.9746 11.175H92.4832H93.8242L97.1382 0.215778H94.7645L92.5911 7.29072L92.3908 7.92269L90.2328 0.832332C90.0479 0.246606 89.7704 0.200364 89.308 0.200364H88.7993ZM100.483 0.200364H100.344H98.8337C98.3867 0.200364 98.2018 0.400744 98.2018 0.832332V2.18875V11.1596H100.483V0.200364ZM106.51 7.53735L104.059 4.22337V11.175H101.762V0.215778H103.119C103.843 0.215778 103.905 0.323675 104.398 0.98647L106.51 3.85344L108.961 7.16741V0.215778H111.257V11.175H109.901C109.176 11.175 109.115 11.0671 108.622 10.4043L106.51 7.53735Z" fill="#EEEEEE"/>
<path fill-rule="evenodd" clip-rule="evenodd" d="M34.589 5.39484C34.7586 5.39484 34.8819 5.53357 34.8819 5.68771C34.8819 5.85726 34.7432 5.98057 34.589 5.98057C34.4195 5.98057 34.2962 5.84184 34.2962 5.68771C34.2808 5.53357 34.4195 5.39484 34.589 5.39484ZM34.589 6.27343C34.7586 6.27343 34.8819 6.41215 34.8819 6.56629C34.8819 6.73584 34.7432 6.85915 34.589 6.85915C34.4195 6.85915 34.2962 6.72043 34.2962 6.56629C34.2808 6.41215 34.4195 6.27343 34.589 6.27343ZM33.695 4.51625C33.8646 4.51625 33.9879 4.65498 33.9879 4.80912C33.9879 4.97867 33.8492 5.10198 33.695 5.10198C33.5255 5.10198 33.4022 4.96325 33.4022 4.80912C33.4022 4.63956 33.5409 4.51625 33.695 4.51625ZM33.695 5.39484C33.8646 5.39484 33.9879 5.53357 33.9879 5.68771C33.9879 5.85726 33.8492 5.98057 33.695 5.98057C33.5255 5.98057 33.4022 5.84184 33.4022 5.68771C33.4022 5.53357 33.5409 5.39484 33.695 5.39484ZM33.695 6.27343C33.8646 6.27343 33.9879 6.41215 33.9879 6.56629C33.9879 6.73584 33.8492 6.85915 33.695 6.85915C33.5255 6.85915 33.4022 6.72043 33.4022 6.56629C33.4022 6.41215 33.5409 6.27343 33.695 6.27343ZM33.695 7.15202C33.8646 7.15202 33.9879 7.29074 33.9879 7.44488C33.9879 7.61443 33.8492 7.73774 33.695 7.73774C33.5255 7.73774 33.4022 7.59902 33.4022 7.44488C33.4022 7.29074 33.5409 7.15202 33.695 7.15202ZM33.695 3.63766C33.8646 3.63766 33.9879 3.77639 33.9879 3.93053C33.9879 4.10008 33.8492 4.22339 33.695 4.22339C33.5255 4.22339 33.4022 4.08466 33.4022 3.93053C33.4022 3.76097 33.5409 3.63766 33.695 3.63766ZM32.8165 4.51625C32.986 4.51625 33.1093 4.65498 33.1093 4.80912C33.1093 4.97867 32.9706 5.10198 32.8165 5.10198C32.6469 5.10198 32.5236 4.96325 32.5236 4.80912C32.5236 4.63956 32.6623 4.51625 32.8165 4.51625ZM32.8165 5.39484C32.986 5.39484 33.1093 5.53357 33.1093 5.68771C33.1093 5.85726 32.9706 5.98057 32.8165 5.98057C32.6469 5.98057 32.5236 5.84184 32.5236 5.68771C32.5236 5.53357 32.6623 5.39484 32.8165 5.39484ZM32.8165 6.27343C32.986 6.27343 33.1093 6.41215 33.1093 6.56629C33.1093 6.73584 32.9706 6.85915 32.8165 6.85915C32.6469 6.85915 32.5236 6.72043 32.5236 6.56629C32.5236 6.41215 32.6623 6.27343 32.8165 6.27343ZM32.8165 7.15202C32.986 7.15202 33.1093 7.29074 33.1093 7.44488C33.1093 7.61443 32.9706 7.73774 32.8165 7.73774C32.6469 7.73774 32.5236 7.59902 32.5236 7.44488C32.5236 7.29074 32.6623 7.15202 32.8165 7.15202ZM32.8165 3.63766C32.986 3.63766 33.1093 3.77639 33.1093 3.93053C33.1093 4.10008 32.9706 4.22339 32.8165 4.22339C32.6469 4.22339 32.5236 4.08466 32.5236 3.93053C32.5236 3.76097 32.6623 3.63766 32.8165 3.63766ZM31.9379 4.51625C32.1074 4.51625 32.2307 4.65498 32.2307 4.80912C32.2307 4.97867 32.092 5.10198 31.9379 5.10198C31.7683 5.10198 31.645 4.96325 31.645 4.80912C31.645 4.63956 31.7683 4.51625 31.9379 4.51625ZM31.9379 5.39484C32.1074 5.39484 32.2307 5.53357 32.2307 5.68771C32.2307 5.85726 32.092 5.98057 31.9379 5.98057C31.7683 5.98057 31.645 5.84184 31.645 5.68771C31.645 5.53357 31.7683 5.39484 31.9379 5.39484ZM31.9379 6.27343C32.1074 6.27343 32.2307 6.41215 32.2307 6.56629C32.2307 6.73584 32.092 6.85915 31.9379 6.85915C31.7683 6.85915 31.645 6.72043 31.645 6.56629C31.645 6.41215 31.7683 6.27343 31.9379 6.27343ZM31.9379 7.15202C32.1074 7.15202 32.2307 7.29074 32.2307 7.44488C32.2307 7.61443 32.092 7.73774 31.9379 7.73774C31.7683 7.73774 31.645 7.59902 31.645 7.44488C31.645 7.29074 31.7683 7.15202 31.9379 7.15202ZM31.9379 3.63766C32.1074 3.63766 32.2307 3.77639 32.2307 3.93053C32.2307 4.10008 32.092 4.22339 31.9379 4.22339C31.7683 4.22339 31.645 4.08466 31.645 3.93053C31.645 3.76097 31.7683 3.63766 31.9379 3.63766ZM31.0593 4.51625C31.2288 4.51625 31.3521 4.65498 31.3521 4.80912C31.3521 4.97867 31.2134 5.10198 31.0593 5.10198C30.8897 5.10198 30.7664 4.96325 30.7664 4.80912C30.7664 4.63956 30.8897 4.51625 31.0593 4.51625ZM31.0593 5.39484C31.2288 5.39484 31.3521 5.53357 31.3521 5.68771C31.3521 5.85726 31.2134 5.98057 31.0593 5.98057C30.8897 5.98057 30.7664 5.84184 30.7664 5.68771C30.7664 5.53357 30.8897 5.39484 31.0593 5.39484ZM31.0593 6.27343C31.2288 6.27343 31.3521 6.41215 31.3521 6.56629C31.3521 6.73584 31.2134 6.85915 31.0593 6.85915C30.8897 6.85915 30.7664 6.72043 30.7664 6.56629C30.7664 6.41215 30.8897 6.27343 31.0593 6.27343ZM34.589 4.51625C34.7586 4.51625 34.8819 4.65498 34.8819 4.80912C34.8819 4.97867 34.7432 5.10198 34.589 5.10198C34.4195 5.10198 34.2962 4.96325 34.2962 4.80912C34.2808 4.63956 34.4195 4.51625 34.589 4.51625ZM29.1326 5.68771C29.1326 5.42567 29.148 5.17905 29.1942 4.93243C29.5025 2.88239 30.8743 2.0038 32.6161 2.0038C33.9262 2.0038 35.0052 2.62035 35.9609 3.29856L37.1477 2.20418C36.2075 0.924832 34.5274 0 32.4619 0C29.1942 0 26.7434 2.32749 26.7434 5.68771C26.7434 9.03251 29.1942 11.3754 32.4619 11.3754C34.5274 11.3754 36.2075 10.4506 37.1477 9.17123L35.9609 8.07685C35.0052 8.75506 33.9262 9.37161 32.6161 9.37161C30.8743 9.37161 29.5025 8.47761 29.1942 6.44298C29.1634 6.21178 29.1326 5.94974 29.1326 5.68771ZM47.2284 1.5568C46.2111 0.570313 44.7776 0 43.1437 0C41.5098 0 40.0918 0.570312 39.0745 1.54138C39.1515 1.63387 39.244 1.72635 39.3211 1.80342C40.3076 2.7899 41.664 3.39104 43.1591 3.39104C44.6543 3.39104 46.0107 2.7899 46.9972 1.80342C47.0742 1.74176 47.1513 1.64928 47.2284 1.5568ZM47.5829 9.43326C48.3998 8.46219 48.8777 7.18285 48.8777 5.68771C48.8777 4.19256 48.3998 2.91321 47.5829 1.94214C47.5058 2.01921 47.4288 2.1117 47.3517 2.18877C46.2727 3.26773 44.793 3.93053 43.1437 3.93053C41.4944 3.93053 40.0147 3.26773 38.9357 2.18877C38.8587 2.1117 38.7662 2.01921 38.6891 1.92673C38.1034 2.62035 37.6872 3.46811 37.5023 4.43919C38.0417 4.80912 38.5658 5.07115 39.0591 5.04032H42.2343V5.68771V6.33508H39.0591C38.5658 6.31967 38.0417 6.56629 37.5023 6.93622C37.6872 7.90729 38.1034 8.75506 38.6891 9.44868C38.7662 9.3562 38.8433 9.27913 38.9357 9.18664C40.0147 8.10767 41.4944 7.44488 43.1437 7.44488C44.793 7.44488 46.2727 8.10767 47.3517 9.18664C47.4442 9.26371 47.5212 9.34078 47.5829 9.43326ZM43.1437 11.3754C44.7776 11.3754 46.2111 10.8051 47.2284 9.81861C47.1513 9.72613 47.0742 9.64906 46.9972 9.55657C46.0107 8.57009 44.6543 7.96895 43.1591 7.96895C41.664 7.96895 40.3076 8.57009 39.3211 9.55657C39.2286 9.64906 39.1515 9.72613 39.0745 9.81861C40.0918 10.8051 41.5098 11.3754 43.1437 11.3754ZM54.627 11.3754C58.3109 11.3754 59.3128 9.17123 59.3128 6.18095V0.215797H57.6327C57.1857 0.215797 57.0008 0.416173 57.0008 0.847761V2.20418V6.08846C57.0008 8.26181 56.338 9.07875 54.6424 9.07875C52.9315 9.07875 52.2995 8.2464 52.2995 6.08846V2.20418V0.847761C52.2995 0.416173 52.0992 0.215797 51.6676 0.215797H50.0029V6.18095C49.972 9.23288 51.0202 11.3754 54.627 11.3754ZM67.4822 11.175H69.6247L66.7731 7.02871C67.0352 6.95164 67.2972 6.85916 67.513 6.73584C68.6536 6.15012 69.2856 5.05574 69.2856 3.68391C69.2856 1.63387 67.8521 0.200383 65.4784 0.200383H60.5768V11.1596H62.858V7.16743H64.3377L66.5727 10.6972C66.696 10.8359 66.8502 11.175 67.4822 11.175ZM62.8734 2.20418H65.4321C66.4186 2.20418 66.9427 2.80532 66.9427 3.69932C66.9427 4.57791 66.4186 5.17905 65.4321 5.17905H62.8734V2.20418ZM79.3971 0.200383H70.2412V1.5568C70.2412 1.98838 70.4416 2.18877 70.8732 2.18877H73.6631V11.1596H75.9598V2.18877H78.0098H78.7497C79.1967 2.18877 79.3816 1.98838 79.3816 1.5568V0.200383H79.3971Z" fill="#EEEEEE"/>
<path fill-rule="evenodd" clip-rule="evenodd" d="M134.809 23.2749H133.36V19.8376L130.17 15.5063H132.019L134.1 18.3887L136.15 15.5063H138L134.794 19.8376V23.2749H134.809ZM126.27 15.5063H127.734V23.2749H126.239V19.0823C125.854 19.853 125.191 21.2557 124.266 23.2749H123.172L121.199 19.0515V23.2749H119.704V15.5063H121.168L123.711 21.0091L126.27 15.5063ZM116.297 18.5429V19.9609H112.86V21.8568H117.145V23.2749H111.365V15.5063H117.053V16.9398H112.86V18.5583H116.297V18.5429ZM103.766 16.9244V21.8414H105.538C106.093 21.8414 106.51 21.7181 106.818 21.4715C107.126 21.2249 107.28 20.9012 107.28 20.485V18.3117C107.28 17.3714 106.71 16.909 105.554 16.909H103.766V16.9244ZM102.271 23.2749V15.5063H105.538C107.696 15.5063 108.775 16.4466 108.775 18.3425V20.5158C108.775 21.3482 108.483 22.0264 107.912 22.535C107.342 23.0437 106.54 23.2903 105.538 23.2903H102.271V23.2749ZM96.7988 19.9455L95.8586 17.803L94.9184 19.9455H96.7988ZM96.4289 15.5063L99.8045 23.2749H98.2015L97.3075 21.2249H94.4251L93.5465 23.2749H91.9589L95.3037 15.5063H96.4289ZM89.8318 18.1421H88.3521C88.3058 17.2635 87.7201 16.8319 86.6103 16.8319H86.5641C85.408 16.8319 84.8223 17.2943 84.8223 18.2346V20.6083C84.8223 21.0091 84.9764 21.3328 85.2847 21.5794C85.593 21.826 86.0246 21.9647 86.5641 21.9647H86.6103C87.1652 21.9647 87.5814 21.826 87.8896 21.564C88.1979 21.3019 88.3521 20.9474 88.3521 20.5158H89.8318C89.8318 21.379 89.5543 22.0726 88.984 22.5967C88.4137 23.1208 87.6276 23.3828 86.6103 23.3828H86.5641C85.5622 23.3828 84.7606 23.1208 84.1903 22.6121C83.62 22.1035 83.3426 21.4252 83.3426 20.6083V18.2346C83.3426 16.3387 84.4215 15.3984 86.5641 15.3984H86.6103C88.7066 15.3984 89.7855 16.3079 89.8318 18.1421ZM78.256 19.9455L77.3158 17.803L76.3755 19.9455H78.256ZM77.8707 15.5063L81.2463 23.2749H79.6432L78.7492 21.2249H75.8669L74.9883 23.2749H73.4007L76.7454 15.5063H77.8707ZM65.5088 20.3H63.767V19.0053H66.9885V20.5775C66.9885 22.4426 65.9095 23.3674 63.767 23.3674H63.3971C62.3952 23.3674 61.5937 23.1054 61.0233 22.5967C60.453 22.088 60.1602 21.4098 60.1602 20.5929V18.2192C60.1602 16.3233 61.2391 15.383 63.3971 15.383H63.7362C65.8325 15.383 66.9114 16.2924 66.9731 18.1113H65.4779C65.4317 17.2481 64.846 16.8165 63.7516 16.8165H63.4125C62.2564 16.8165 61.6861 17.2789 61.6861 18.2192V20.1151C61.6861 20.7008 61.8095 21.1478 62.0407 21.4715C62.2873 21.7798 62.7343 21.9493 63.4125 21.9493H63.7824C64.9385 21.9493 65.5242 21.4869 65.5242 20.5775V20.3H65.5088ZM57.5398 23.2749H56.3221L52.1912 18.1113V23.2749H50.6961V15.5063H51.9908L56.0601 20.6083V15.5063H57.5398V23.2749ZM48.0295 23.2749H46.5343V15.5063H48.0295V23.2749ZM43.8678 23.2749H42.3726V20.0997H38.5962V23.2749H37.1011V15.5063H38.5962V18.6816H42.3726V15.5063H43.8678V23.2749ZM34.5424 18.1421H33.0627C33.0164 17.2635 32.4307 16.8319 31.3209 16.8319H31.2747C30.1186 16.8319 29.5329 17.2943 29.5329 18.2346V20.6083C29.5329 21.0091 29.687 21.3328 29.9953 21.5794C30.3036 21.826 30.7352 21.9647 31.2747 21.9647H31.3209C31.8758 21.9647 32.292 21.826 32.6002 21.564C32.9085 21.3019 33.0627 20.9474 33.0627 20.5158H34.5424C34.5424 21.379 34.2649 22.0726 33.6946 22.5967C33.1243 23.1208 32.3382 23.3828 31.3209 23.3828H31.2747C30.2728 23.3828 29.4712 23.1208 28.9009 22.6121C28.3306 22.1035 28.0532 21.4252 28.0532 20.6083V18.2346C28.0532 16.3387 29.1321 15.3984 31.2747 15.3984H31.3209C33.4172 15.3984 34.4807 16.3079 34.5424 18.1421ZM22.9512 19.9455L22.0109 17.803L21.0707 19.9455H22.9512ZM22.5658 15.5063L25.9415 23.2749H24.3384L23.4444 21.2249H20.562L19.6835 23.2749H18.0958L21.4406 15.5063H22.5658ZM12.7781 16.8319H12.2386C11.0825 16.8319 10.5122 17.2943 10.5122 18.2346V20.5929C10.5122 20.9937 10.6664 21.3174 10.9746 21.564C11.2829 21.8106 11.6991 21.9339 12.254 21.9339H12.7935C13.3484 21.9339 13.7645 21.8106 14.0728 21.564C14.3811 21.3174 14.5352 20.9937 14.5352 20.5929V18.2346C14.5198 17.2943 13.9341 16.8319 12.7781 16.8319ZM12.2386 15.3984H12.7781C14.9206 15.3984 15.9996 16.3387 15.9996 18.2346V20.5929C15.9996 21.4407 15.7067 22.1035 15.1518 22.6121C14.5969 23.1208 13.7954 23.3674 12.7781 23.3674H12.2386C11.2367 23.3674 10.4352 23.1208 9.86485 22.6121C9.29454 22.1035 9.00167 21.4252 9.00167 20.5929V18.2346C9.00167 16.3387 10.0806 15.3984 12.2386 15.3984ZM6.48922 18.1421H5.00949C4.96325 17.2635 4.37753 16.8319 3.26773 16.8319H3.22148C2.06545 16.8319 1.47972 17.2943 1.47972 18.2346V20.6083C1.47972 21.0091 1.63386 21.3328 1.94214 21.5794C2.25042 21.826 2.682 21.9647 3.22148 21.9647H3.26773C3.82263 21.9647 4.2388 21.826 4.54708 21.564C4.85536 21.3019 5.00949 20.9474 5.00949 20.5158H6.48922C6.48922 21.379 6.21177 22.0726 5.64146 22.5967C5.07115 23.1208 4.28505 23.3828 3.26773 23.3828H3.22148C2.21959 23.3828 1.41807 23.1208 0.847761 22.6121C0.277449 22.1035 0 21.4252 0 20.6083V18.2346C0 16.3387 1.07896 15.3984 3.22148 15.3984H3.26773C5.36401 15.3984 6.44298 16.3079 6.48922 18.1421Z" fill="#EEEEEE"/>
</svg>
