<svg width="56" height="56" viewBox="0 0 56 56" fill="none" xmlns="http://www.w3.org/2000/svg">
<path d="M28 56C43.464 56 56 43.464 56 28C56 12.536 43.464 0 28 0C12.536 0 0 12.536 0 28C0 43.464 12.536 56 28 56Z" fill="#B3B2B7"/>
<path fill-rule="evenodd" clip-rule="evenodd" d="M23.3616 28.3128V45.464C23.3613 45.5226 23.3726 45.5807 23.3949 45.6349C23.4171 45.6891 23.4499 45.7384 23.4914 45.7798C23.5328 45.8212 23.5821 45.8541 23.6363 45.8763C23.6905 45.8986 23.7486 45.9099 23.8072 45.9096H30.1736C30.2917 45.9094 30.4049 45.8624 30.4884 45.7789C30.572 45.6953 30.619 45.5821 30.6192 45.464V28.0368H35.2376C35.3496 28.037 35.4576 27.9951 35.5401 27.9193C35.6227 27.8436 35.6737 27.7396 35.6832 27.628L36.1288 22.3784C36.1338 22.317 36.1259 22.2552 36.1058 22.197C36.0856 22.1388 36.0536 22.0855 36.0116 22.0403C35.9697 21.9952 35.9189 21.9592 35.8623 21.9348C35.8058 21.9104 35.7448 21.898 35.6832 21.8984H30.62V18.172C30.62 17.7525 30.7866 17.3503 31.0832 17.0536C31.3798 16.757 31.7821 16.5904 32.2016 16.5904H35.76C35.8781 16.5902 35.9913 16.5432 36.0748 16.4597C36.1584 16.3761 36.2054 16.2629 36.2056 16.1448V10.8856C36.2054 10.7675 36.1584 10.6543 36.0748 10.5707C35.9913 10.4872 35.8781 10.4402 35.76 10.44H29.7472C28.908 10.4398 28.0771 10.6049 27.3017 10.926C26.5264 11.247 25.822 11.7176 25.2286 12.311C24.6352 12.9044 24.1646 13.6088 23.8435 14.3842C23.5225 15.1595 23.3574 15.9904 23.3576 16.8296V21.8912H20.1712C20.0531 21.8914 19.9398 21.9384 19.8563 22.022C19.7728 22.1055 19.7258 22.2187 19.7256 22.3368V27.5864C19.7258 27.7045 19.7728 27.8177 19.8563 27.9013C19.9398 27.9848 20.0531 28.0318 20.1712 28.032H23.3568V28.3128H23.3616Z" fill="white"/>
</svg>
