<svg width="56" height="56" viewBox="0 0 56 56" fill="none" xmlns="http://www.w3.org/2000/svg">
<path d="M28 56C43.464 56 56 43.464 56 28C56 12.536 43.464 0 28 0C12.536 0 0 12.536 0 28C0 43.464 12.536 56 28 56Z" fill="#B3B2B7"/>
<path d="M21.4352 25.4448C21.4304 25.5248 21.4216 25.5872 21.4216 25.6472C21.4216 27.2008 21.4264 30.5616 21.4264 30.5616H28.248C28.1136 31.3376 27.822 32.0779 27.3911 32.7372C26.9602 33.3964 26.3992 33.9606 25.7424 34.3952C24.6371 35.1183 23.3572 35.5296 22.0376 35.5856C21.1049 35.652 20.168 35.5435 19.2752 35.2656C17.8478 34.7967 16.5894 33.919 15.6562 32.7415C14.723 31.564 14.156 30.1384 14.0256 28.6416C13.9542 27.8691 14.0055 27.0901 14.1776 26.3336C14.5781 24.4801 15.6641 22.8464 17.2181 21.7596C18.772 20.6728 20.6792 20.2132 22.5576 20.4728C23.9619 20.6724 25.2695 21.3037 26.2992 22.2792C27.5312 21.0472 28.7496 19.8288 30.004 18.5696C29.3034 17.9507 28.548 17.3967 27.7472 16.9144C25.9114 15.8459 23.8265 15.28 21.7024 15.2736C21.2976 15.2648 20.8888 15.292 20.484 15.3104C19.7758 15.345 19.0732 15.4544 18.388 15.6368C15.7493 16.2949 13.3898 17.7786 11.6534 19.8715C9.91688 21.9644 8.89423 24.5572 8.73441 27.272C8.6596 28.4221 8.74929 29.5769 9.00079 30.7016C9.65661 33.7709 11.4334 36.4854 13.984 38.3144C15.9633 39.7708 18.3293 40.6089 20.784 40.7232C22.1886 40.8066 23.5975 40.667 24.9584 40.3096C27.462 39.7059 29.6773 38.2495 31.224 36.1904C32.3107 34.6482 33.0659 32.8974 33.442 31.0486C33.818 29.1997 33.8067 27.293 33.4088 25.4488C29.4088 25.4448 25.4304 25.4448 21.4352 25.4448Z" fill="white"/>
<path d="M48.82 25.6096H44.5V21.164H41.0248V25.6096H36.5872V29.0848H41.028V33.5304H44.5032V29.0848H48.9488V25.6096H48.82Z" fill="white"/>
</svg>
