<svg width="350" height="78" viewBox="0 0 350 78" fill="none" xmlns="http://www.w3.org/2000/svg">
<path fill-rule="evenodd" clip-rule="evenodd" d="M7.87819 0L0 7.87819L0.121809 8H0V66C0 72.6274 5.37259 78 12 78H338C344.627 78 350 72.6274 350 66V8H349.878L350 7.87819L342.121 0L334.525 7.59619L326.929 0L319.332 7.59668L311.736 0L304.139 7.59619L296.543 0L288.947 7.59668L281.35 0L273.754 7.59619L266.158 0L258.561 7.59668L250.964 0L243.368 7.59619L235.772 0L228.175 7.59668L220.578 0L212.982 7.59619L205.386 0L197.789 7.59668L190.193 0L182.596 7.59619L175 0L167.404 7.59668L159.807 0L152.211 7.59619L144.615 0L137.018 7.59668L129.421 0L121.825 7.59619L114.229 0L106.632 7.59668L99.0354 0L91.4392 7.59619L83.843 0L76.2464 7.59668L68.6497 0L61.0535 7.59619L53.4573 0L45.8606 7.59668L38.2639 0L30.6677 7.59619L23.0716 0L15.4749 7.59668L7.87819 0Z" fill="#323233" fill-opacity="0.3"/>
</svg>
