<svg width="350" height="39" viewBox="0 0 350 39" fill="none" xmlns="http://www.w3.org/2000/svg">
<rect width="350" height="39" fill="#3C3E4A"/>
<path fill-rule="evenodd" clip-rule="evenodd" d="M350 0H0V1.5293C10.0677 1.5293 18.2292 9.72803 18.2292 19.8417C18.2292 29.9553 10.0677 38.1541 0 38.1541V39H350V38.1541C340.061 38.1541 331.98 30.1641 331.775 20.2295L331.771 20.2295H329.258H328.258V18.2295H329.258H331.771C331.795 18.2295 331.818 18.2303 331.84 18.2318C332.652 8.87213 340.472 1.5293 350 1.5293V0ZM19.0527 19.2295C19.0527 18.6772 19.5005 18.2295 20.0527 18.2295H22.5666H23.5666V20.2295H22.5666H20.0527C19.5005 20.2295 19.0527 19.7818 19.0527 19.2295ZM26.5943 18.2295H27.5943H32.622H33.622V20.2295H32.622H27.5943H26.5943V18.2295ZM36.6498 18.2295H37.6498H42.6775H43.6775V20.2295H42.6775H37.6498H36.6498V18.2295ZM46.7052 18.2295H47.7052H52.7329H53.7329V20.2295H52.7329H47.7052H46.7052V18.2295ZM56.7606 18.2295H57.7606H62.7884H63.7884V20.2295H62.7884H57.7606H56.7606V18.2295ZM66.8161 18.2295H67.8161H72.8438H73.8438V20.2295H72.8438H67.8161H66.8161V18.2295ZM76.8715 18.2295H77.8715H82.8993H83.8993V20.2295H82.8993H77.8715H76.8715V18.2295ZM86.927 18.2295H87.927H92.9547H93.9547V20.2295H92.9547H87.927H86.927V18.2295ZM96.9824 18.2295H97.9824H103.01H104.01V20.2295H103.01H97.9824H96.9824V18.2295ZM107.038 18.2295H108.038H113.066H114.066V20.2295H113.066H108.038H107.038V18.2295ZM117.093 18.2295H118.093H123.121H124.121V20.2295H123.121H118.093H117.093V18.2295ZM127.149 18.2295H128.149H133.177H134.177V20.2295H133.177H128.149H127.149V18.2295ZM137.204 18.2295H138.204H143.232H144.232V20.2295H143.232H138.204H137.204V18.2295ZM147.26 18.2295H148.26H153.287H154.287V20.2295H153.287H148.26H147.26V18.2295ZM157.315 18.2295H158.315H163.343H164.343V20.2295H163.343H158.315H157.315V18.2295ZM167.371 18.2295H168.371H173.398H174.398V20.2295H173.398H168.371H167.371V18.2295ZM177.426 18.2295H178.426H183.454H184.454V20.2295H183.454H178.426H177.426V18.2295ZM187.481 18.2295H188.481H193.509H194.509V20.2295H193.509H188.481H187.481V18.2295ZM197.537 18.2295H198.537H203.565H204.565V20.2295H203.565H198.537H197.537V18.2295ZM207.592 18.2295H208.592H213.62H214.62V20.2295H213.62H208.592H207.592V18.2295ZM217.648 18.2295H218.648H223.676H224.676V20.2295H223.676H218.648H217.648V18.2295ZM227.703 18.2295H228.703H233.731H234.731V20.2295H233.731H228.703H227.703V18.2295ZM237.759 18.2295H238.759H243.786H244.786V20.2295H243.786H238.759H237.759V18.2295ZM247.814 18.2295H248.814H253.842H254.842V20.2295H253.842H248.814H247.814V18.2295ZM257.87 18.2295H258.87H263.897H264.897V20.2295H263.897H258.87H257.87V18.2295ZM267.925 18.2295H268.925H273.953H274.953V20.2295H273.953H268.925H267.925V18.2295ZM277.981 18.2295H278.981H284.008H285.008V20.2295H284.008H278.981H277.981V18.2295ZM288.036 18.2295H289.036H294.064H295.064V20.2295H294.064H289.036H288.036V18.2295ZM298.091 18.2295H299.091H304.119H305.119V20.2295H304.119H299.091H298.091V18.2295ZM308.147 18.2295H309.147H314.174H315.174V20.2295H314.174H309.147H308.147V18.2295ZM318.202 18.2295H319.202H324.23H325.23V20.2295H324.23H319.202H318.202V18.2295Z" fill="#505267"/>
</svg>
