<svg width="218" height="123" viewBox="0 0 218 123" fill="none" xmlns="http://www.w3.org/2000/svg">
<g clip-path="url(#clip0_2794_16927)">
<path d="M45.8784 121.549H12.5734C12.5734 121.549 11.8983 111.647 15.8925 111.535C19.8867 111.422 19.4367 115.923 24.4438 109.734C29.4509 103.546 35.5266 103.883 36.3142 107.54C37.1019 111.197 34.7954 114.122 39.0147 113.222C43.2339 112.322 49.3101 114.685 45.8784 121.549Z" fill="#E6E6E6"/>
<path d="M28.6633 121.551L28.5508 121.547C28.813 115.028 30.1781 110.84 31.2775 108.473C32.4709 105.905 33.6209 104.865 33.6325 104.854L33.7074 104.939C33.696 104.949 32.5595 105.978 31.3756 108.53C30.2824 110.885 28.9246 115.057 28.6633 121.551Z" fill="white"/>
<path d="M40.7174 121.564L40.6094 121.532C41.447 118.77 42.9568 116.258 45.0037 114.222L45.0793 114.305C43.0476 116.327 41.5489 118.821 40.7174 121.564Z" fill="white"/>
<path d="M17.8196 121.557L17.7081 121.541C18.0712 119.097 17.687 116.6 16.6059 114.378C16.1627 113.447 15.576 112.59 14.8672 111.84L14.9451 111.759C15.6635 112.518 16.2583 113.385 16.7077 114.328C17.7986 116.571 18.1862 119.09 17.8196 121.557Z" fill="white"/>
<path d="M50.3983 121.699H8.98128L8.97181 121.559C8.94812 121.21 8.41965 112.977 11.0871 110.039C11.3518 109.729 11.6785 109.478 12.0462 109.301C12.4139 109.125 12.8145 109.027 13.2221 109.015C14.9608 108.965 16.0535 109.617 16.9349 110.139C18.5962 111.125 19.6934 111.776 23.6836 106.844C28.0059 101.502 32.6698 100.352 35.3508 100.992C37.0831 101.405 38.277 102.572 38.6264 104.194C38.958 105.73 38.8519 107.174 38.7671 108.334C38.6763 109.575 38.6048 110.555 39.1146 110.999C39.5409 111.37 40.3892 111.403 41.7868 111.105C44.6293 110.499 48.5966 111.017 50.5875 113.59C51.6587 114.974 52.5027 117.49 50.4399 121.616L50.3983 121.699ZM9.26388 121.398H50.2118C51.7489 118.279 51.797 115.645 50.3495 113.774C48.5229 111.414 44.6909 110.793 41.8496 111.4C40.3309 111.724 39.4263 111.67 38.9168 111.226C38.2935 110.683 38.3701 109.637 38.4667 108.313C38.5501 107.172 38.6536 105.752 38.3319 104.258C38.0079 102.754 36.8957 101.67 35.2807 101.285C32.6852 100.666 28.1507 101.801 23.9174 107.034C19.764 112.168 18.5126 111.426 16.7812 110.398C15.8889 109.869 14.876 109.269 13.2304 109.315C12.8634 109.327 12.5029 109.416 12.1721 109.575C11.8413 109.735 11.5476 109.962 11.3098 110.241C8.91306 112.882 9.20537 120.285 9.26412 121.398H9.26388Z" fill="#2F2E41"/>
<path d="M185.726 121.866H144.932L144.924 121.638L142.977 65.9287H187.682L185.726 121.866ZM145.39 121.393H185.269L187.192 66.4025H143.467L145.39 121.393Z" fill="#3F3D56"/>
<path d="M154.663 76.25H151.561V114.647H154.663V76.25Z" fill="#3F3D56"/>
<path d="M166.88 76.25H163.777V114.647H166.88V76.25Z" fill="#3F3D56"/>
<path d="M179.098 76.25H175.995V114.647H179.098V76.25Z" fill="#3F3D56"/>
<path d="M213.604 82.2872L213.404 82.1607L162.732 50.1388L167.128 43.1836L167.328 43.3101L218 75.3319L213.604 82.2872ZM163.386 49.9914L213.457 81.6335L217.346 75.4795L167.275 43.8371L163.386 49.9914Z" fill="#3F3D56"/>
<path d="M201.371 47.5576C199.898 46.6255 198.188 46.1354 196.445 46.1457C194.702 46.1559 192.999 46.666 191.537 47.6153C190.075 48.5647 188.916 49.9135 188.198 51.5017C187.48 53.09 187.232 54.8509 187.485 56.5756L189.901 58.1025C189.294 56.6926 189.154 55.1253 189.502 53.6302C189.85 52.1351 190.667 50.7906 191.834 49.7936C193.002 48.7967 194.458 48.1996 195.989 48.0899C197.52 47.9801 199.046 48.3635 200.344 49.1838C201.641 50.0041 202.642 51.2182 203.199 52.6485C203.757 54.0787 203.842 55.6499 203.442 57.132C203.042 58.614 202.178 59.9291 200.977 60.8847C199.776 61.8403 198.3 62.3861 196.766 62.4423L199.182 63.9692C200.848 63.4577 202.333 62.4788 203.459 61.1488C204.586 59.8188 205.308 58.1935 205.538 56.4657C205.769 54.738 205.499 52.9803 204.761 51.4014C204.022 49.8224 202.847 48.4883 201.373 47.5576H201.371Z" fill="#3F3D56"/>
<path d="M215.322 121.539H0V122.013H215.322V121.539Z" fill="#3F3D56"/>
<path d="M94.0499 118.306H90.6L88.958 105H94.0509L94.0499 118.306Z" fill="#FEB8B8"/>
<path d="M83.9463 121.509H94.7884V117.32H88.0772C86.9816 117.32 85.9309 117.756 85.1562 118.53C84.3815 119.305 83.9463 120.356 83.9463 121.451V121.509Z" fill="#2F2E41"/>
<path d="M92.8369 97.6876L95.2166 100.186L105.983 92.1963L102.471 88.5098L92.8369 97.6876Z" fill="#FEB8B8"/>
<path d="M97.6684 101.33L93.0377 96.4707L90.0049 99.3611L97.486 107.211L97.528 107.171C97.9207 106.796 98.2359 106.348 98.4555 105.852C98.6752 105.356 98.7949 104.822 98.808 104.279C98.821 103.737 98.7271 103.197 98.5315 102.691C98.336 102.185 98.0427 101.722 97.6684 101.33Z" fill="#2F2E41"/>
<path d="M68.8248 61.232C68.6065 60.8808 68.4678 60.4859 68.4186 60.0753C68.3693 59.6646 68.4107 59.2482 68.5397 58.8553C68.6688 58.4623 68.8824 58.1024 69.1656 57.801C69.4487 57.4995 69.7945 57.2638 70.1786 57.1104L83.7231 22.5908L89.0026 25.752L73.9566 58.8675C74.1716 59.5301 74.1361 60.2484 73.8568 60.8865C73.5774 61.5246 73.0737 62.038 72.4411 62.3295C71.8085 62.621 71.091 62.6703 70.4244 62.468C69.7579 62.2657 69.1888 61.826 68.8248 61.232Z" fill="#FEB8B8"/>
<path d="M120.235 63.7068C119.822 63.6773 119.421 63.5577 119.059 63.3563C118.698 63.1549 118.385 62.8768 118.143 62.5414C117.9 62.206 117.735 61.8215 117.657 61.4151C117.579 61.0087 117.592 60.5902 117.694 60.1892L97.7119 28.9523L103.371 26.5361L121.335 58.1648C121.998 58.3793 122.56 58.8298 122.913 59.431C123.266 60.0321 123.386 60.742 123.25 61.4258C123.115 62.1097 122.733 62.7198 122.177 63.1405C121.621 63.5612 120.93 63.763 120.235 63.7078V63.7068Z" fill="#FEB8B8"/>
<path d="M83.8564 57.7761L87.3933 110.342L95.8456 109.597L97.5857 70.8146L102.309 87.4704L112.501 88.2161L108.467 55.29L83.8564 57.7761Z" fill="#2F2E41"/>
<path d="M103.8 84.9844L102.308 87.4704L91.8682 94.6796L99.326 98.6572C99.326 98.6572 113.745 90.7021 112.502 88.2161L103.8 84.9844Z" fill="#2F2E41"/>
<path d="M76.4551 36.5076L79.3973 28.2169C80.0519 26.3722 81.0659 24.6756 82.3805 23.2253C83.6951 21.7751 85.2843 20.5999 87.0561 19.7679C91.0385 18.3008 95.3697 18.0637 99.4884 19.0874L100.559 19.3531C103.414 20.0452 106.089 21.3372 108.406 23.1432C110.219 24.5725 111.851 26.3823 111.996 28.3289C111.997 28.3331 111.998 28.3371 111.999 28.341C112.502 30.5421 112.75 41.9774 112.75 41.9774H108.32L109.021 57.3903L108.964 57.2788C108.964 57.2788 83.4157 62.1137 83.4157 59.6276V43.717L82.892 37.9561L76.4551 36.5076Z" fill="#CCCCCC"/>
<path d="M100.302 16.9326C104.212 16.9326 107.382 13.7627 107.382 9.85251C107.382 5.94231 104.212 2.77246 100.302 2.77246C96.3915 2.77246 93.2217 5.94231 93.2217 9.85251C93.2217 13.7627 96.3915 16.9326 100.302 16.9326Z" fill="#FEB8B8"/>
<path d="M101.363 6.67726L106.86 6.89755C107.552 6.89542 108.307 6.87102 108.834 6.4238C109.628 5.74893 109.495 4.47547 109.07 3.52417C107.885 0.8754 105.243 -0.0735331 102.342 0.00439988C99.4413 0.0823328 96.4014 1.06561 94.8392 3.51019C93.277 5.95478 92.8549 9.04178 93.4433 11.8824C94.1235 10.438 95.1708 9.19725 96.4804 8.28405C97.7901 7.37086 99.3163 6.81715 100.907 6.67821L101.363 6.67726Z" fill="#2F2E41"/>
<path d="M134.008 75.9305L114.11 61.9848C113.925 61.8547 113.799 61.6567 113.76 61.434C113.721 61.2114 113.771 60.9823 113.901 60.7969L129.519 38.5131C129.649 38.3283 129.847 38.2025 130.069 38.1633C130.292 38.1242 130.521 38.1748 130.706 38.3042L150.605 52.2499C150.789 52.38 150.915 52.5781 150.954 52.8007C150.994 53.0233 150.943 53.2524 150.814 53.4378L135.196 75.721C135.066 75.9061 134.868 76.0321 134.645 76.0713C134.423 76.1106 134.193 76.06 134.008 75.9305Z" fill="#E5B547"/>
<path d="M138.482 60.799L126.806 52.6158C126.671 52.5212 126.556 52.4009 126.468 52.2618C126.379 52.1227 126.319 51.9675 126.29 51.8051C126.262 51.6427 126.266 51.4763 126.301 51.3153C126.337 51.1544 126.404 51.002 126.499 50.867C126.593 50.732 126.714 50.6169 126.853 50.5284C126.992 50.4398 127.147 50.3796 127.31 50.351C127.472 50.3224 127.638 50.3262 127.799 50.3619C127.96 50.3977 128.113 50.4648 128.248 50.5594L139.924 58.7425C140.196 58.9336 140.382 59.2253 140.44 59.5532C140.497 59.8812 140.422 60.2187 140.231 60.4914C140.04 60.7641 139.748 60.9497 139.42 61.0074C139.093 61.065 138.755 60.9901 138.482 60.799Z" fill="white"/>
<path d="M135.804 64.6218L124.128 56.4387C123.992 56.3442 123.877 56.2239 123.789 56.0848C123.7 55.9456 123.64 55.7904 123.611 55.6279C123.582 55.4655 123.586 55.2989 123.622 55.1379C123.657 54.9768 123.724 54.8244 123.819 54.6893C123.914 54.5542 124.034 54.439 124.173 54.3505C124.313 54.2619 124.468 54.2017 124.63 54.1732C124.793 54.1447 124.959 54.1485 125.12 54.1844C125.282 54.2202 125.434 54.2875 125.569 54.3823L137.245 62.5654C137.517 62.7567 137.703 63.0482 137.76 63.376C137.818 63.7039 137.743 64.0411 137.551 64.3136C137.36 64.5862 137.069 64.7717 136.741 64.8295C136.414 64.8873 136.076 64.8126 135.804 64.6218Z" fill="white"/>
<path d="M133.095 68.4865L121.419 60.3034C121.284 60.2087 121.169 60.0884 121.08 59.9493C120.992 59.8102 120.931 59.655 120.903 59.4926C120.874 59.3302 120.878 59.1638 120.914 59.0028C120.949 58.8419 121.017 58.6895 121.111 58.5545C121.206 58.4195 121.326 58.3044 121.465 58.2159C121.604 58.1273 121.759 58.0671 121.922 58.0385C122.084 58.0099 122.251 58.0137 122.412 58.0494C122.573 58.0852 122.725 58.1523 122.86 58.2469L134.536 66.43C134.809 66.6211 134.994 66.9128 135.052 67.2407C135.11 67.5687 135.035 67.9062 134.843 68.1789C134.652 68.4516 134.361 68.6372 134.033 68.6949C133.705 68.7525 133.367 68.6776 133.095 68.4865Z" fill="white"/>
<path d="M138.45 53.2352L133.927 50.0657C133.792 49.9711 133.677 49.8508 133.588 49.7117C133.5 49.5726 133.439 49.4174 133.411 49.2549C133.382 49.0924 133.386 48.9259 133.421 48.7648C133.457 48.6038 133.524 48.4513 133.619 48.3162C133.714 48.1811 133.834 48.066 133.973 47.9775C134.112 47.8889 134.268 47.8286 134.43 47.8001C134.593 47.7716 134.759 47.7754 134.92 47.8113C135.081 47.8472 135.234 47.9145 135.369 48.0093L139.891 51.1788C140.164 51.3699 140.349 51.6616 140.407 51.9895C140.465 52.3175 140.39 52.655 140.199 52.9277C140.008 53.2004 139.716 53.386 139.388 53.4437C139.06 53.5013 138.723 53.4264 138.45 53.2352Z" fill="white"/>
</g>
<defs>
<clipPath id="clip0_2794_16927">
<rect width="218" height="122.013" fill="white"/>
</clipPath>
</defs>
</svg>
