<svg width="24" height="24" viewBox="0 0 24 24" fill="none" xmlns="http://www.w3.org/2000/svg">
<path d="M24 17C24 20.87 20.87 24 17 24C13.13 24 10 20.87 10 17C10 16.66 10.03 16.33 10.08 16H2V4H20V10.68C22.36 11.81 24 14.21 24 17ZM10.68 14C10.86 13.64 11.05 13.3 11.28 12.97C11.19 13 11.1 13 11 13C9.34 13 8 11.66 8 10C8 8.34 9.34 7 11 7C12.66 7 14 8.34 14 10C14 10.25 13.96 10.5 13.9 10.73C14.84 10.27 15.89 10 17 10C17.34 10 17.67 10.03 18 10.08V8C16.9 8 16 7.11 16 6H6C6 7.11 5.11 8 4 8V12C5.11 12 6 12.9 6 14H10.68ZM22 17C22 14.24 19.76 12 17 12C14.24 12 12 14.24 12 17C12 19.76 14.24 22 17 22C19.76 22 22 19.76 22 17Z" fill="#EEEEEE"/>
<path d="M13.792 19L15.268 17.2V17.662L13.876 15.952H15.124L15.88 16.942H15.496L16.258 15.952H17.5L16.108 17.668V17.188L17.59 19H16.33L15.496 17.926H15.88L15.04 19H13.792ZM17.9464 19V18.1H18.8944V15.688H19.3984L18.0484 16.456V15.436L19.2124 14.77H19.9984V18.1H20.8804V19H17.9464Z" fill="#EEEEEE"/>
</svg>
