<svg width="22" height="22" viewBox="0 0 22 22" fill="none" xmlns="http://www.w3.org/2000/svg">
<path d="M21.4309 9.58993L12.4209 0.579928C11.6709 -0.170072 10.3509 -0.180072 9.59086 0.579928L0.590859 9.57993C-0.189141 10.3599 -0.189141 11.6199 0.590859 12.3999L9.59086 21.3999C9.98086 21.7899 10.4909 21.9799 11.0009 21.9799C11.5109 21.9799 12.0209 21.7899 12.4109 21.3999L21.4009 12.4099C22.1909 11.6499 22.2009 10.3899 21.4309 9.58993ZM11.0109 19.9899L2.01086 10.9899L11.0109 1.98993L20.0109 10.9899L11.0109 19.9899ZM7.00086 9.99993V13.9999H9.00086V10.9999H13.0009V13.4999L16.5009 9.99993L13.0009 6.49993V8.99993H8.00086C7.45086 8.99993 7.00086 9.44993 7.00086 9.99993Z" fill="#EEEEEE"/>
</svg>
