<svg width="25" height="24" viewBox="0 0 25 24" fill="none" xmlns="http://www.w3.org/2000/svg">
<g clip-path="url(#clip0_3233_19749)">
<path d="M12.5 4C14.43 4 17.5 5.4 17.5 9.15C17.5 11.31 15.78 13.82 12.5 16.47C9.22 13.82 7.5 11.3 7.5 9.15C7.5 5.4 10.57 4 12.5 4ZM12.5 2C9.23 2 5.5 4.46 5.5 9.15C5.5 12.27 7.83 15.56 12.5 19C17.17 15.56 19.5 12.27 19.5 9.15C19.5 4.46 15.77 2 12.5 2Z" fill="#3C3E4A"/>
<path d="M12.5 7C11.4 7 10.5 7.9 10.5 9C10.5 10.1 11.4 11 12.5 11C13.0304 11 13.5391 10.7893 13.9142 10.4142C14.2893 10.0391 14.5 9.53043 14.5 9C14.5 8.46957 14.2893 7.96086 13.9142 7.58579C13.5391 7.21071 13.0304 7 12.5 7ZM5.5 20H19.5V22H5.5V20Z" fill="#3C3E4A"/>
</g>
<defs>
<clipPath id="clip0_3233_19749">
<rect width="24" height="24" fill="white" transform="translate(0.5)"/>
</clipPath>
</defs>
</svg>
