<svg width="251" height="68" viewBox="0 0 251 68" fill="none" xmlns="http://www.w3.org/2000/svg">
<path d="M73.9631 8.30363C72.5028 7.19767 70.4198 7.484 69.3138 8.94787C68.2078 10.4082 68.4942 12.4877 69.9545 13.5972C77.009 18.9373 81.5688 27.0906 81.5688 34.3634C81.5688 38.7729 77.9825 42.3592 73.5766 42.3592C69.1706 42.3592 65.5843 38.7729 65.5843 34.3634V25.4334C65.5843 23.6009 64.099 22.1156 62.2665 22.1156C60.4339 22.1156 58.9486 23.6009 58.9486 25.4334V34.3634C58.9486 34.6748 58.9307 34.9826 58.8985 35.2868C58.8985 35.294 58.8985 35.3047 58.8949 35.3119C58.426 39.3277 55.0115 42.3592 50.9563 42.3592C46.5504 42.3592 42.9641 38.7729 42.9641 34.3634C42.9641 27.1407 47.4846 19.0196 54.4782 13.6723C54.6286 13.5578 54.7717 13.429 54.9041 13.2822C54.9793 13.1999 55.0509 13.114 55.1189 13.0245C55.1475 12.9887 55.1726 12.9494 55.2012 12.9136C55.3372 12.7131 55.4482 12.502 55.5377 12.2836C55.5591 12.2335 55.577 12.187 55.5949 12.1369C55.6164 12.0796 55.6343 12.0188 55.6522 11.9615C55.6522 11.9544 55.6558 11.9436 55.6593 11.9365C55.688 11.8362 55.7095 11.7396 55.7274 11.6394C55.7417 11.5571 55.7524 11.4748 55.7596 11.396C55.7667 11.3387 55.7739 11.2851 55.7739 11.2242C55.7739 11.1634 55.7775 11.1025 55.7775 11.0417C55.7775 10.9844 55.7775 10.9307 55.7739 10.8735C55.7739 10.8162 55.7703 10.7625 55.7596 10.7088C55.756 10.6515 55.7452 10.5979 55.7381 10.5406C55.7345 10.5084 55.7274 10.4797 55.7238 10.4475C55.713 10.3831 55.6987 10.3187 55.6844 10.2578C55.6271 10.0145 55.5377 9.77466 55.4231 9.54559C55.4017 9.50622 55.3838 9.47043 55.3587 9.43464C55.1941 9.13041 54.9722 8.85124 54.7037 8.60427C54.6894 8.59354 54.6822 8.5828 54.6679 8.57206C48.6442 3.0387 40.8775 0 32.7886 0C14.7103 0 0 15.0467 0 33.5402C0 52.0337 14.7103 67.0804 32.7886 67.0804C41.1602 67.0804 49.1274 63.8556 55.2263 58.0001C59.013 54.3673 61.8584 49.9291 63.6015 45.0508C66.2143 47.4917 69.7254 48.9914 73.5766 48.9914C81.644 48.9914 88.2046 42.4272 88.2046 34.3598C88.2046 25.0863 82.6139 14.857 73.9631 8.30363ZM32.7886 60.4447C18.3682 60.4447 6.63574 48.3758 6.63574 33.5402C6.63574 18.7046 18.3682 6.63574 32.7886 6.63574C37.6061 6.63574 42.2841 7.99224 46.3392 10.5263C46.8117 10.8198 46.8833 11.4783 46.4931 11.8756C44.1595 14.2343 42.123 16.9007 40.4909 19.7497C37.9032 24.2738 36.4715 29.0555 36.3355 33.6333C36.0886 41.8116 42.4415 48.8053 50.6199 48.9878C51.665 49.0129 52.6851 48.9234 53.6693 48.7373C53.9593 48.6836 54.1704 49.0057 54.0022 49.2491C49.2276 56.0387 41.4537 60.4447 32.7886 60.4447Z" fill="#E5B547"/>
<path d="M106.355 47.6959C103.463 47.6959 101.047 46.7546 99.1109 44.8684C97.171 42.9857 96.2046 40.645 96.2046 37.8497C96.2046 35.0543 97.1745 32.7136 99.1109 30.8309C101.047 28.9483 103.463 28.0034 106.355 28.0034C108.227 28.0034 109.923 28.4222 111.448 29.2561C112.973 30.0901 114.172 31.2318 115.049 32.6849L110.367 35.5304C109.97 34.8217 109.419 34.2598 108.71 33.8374C108.001 33.4187 107.218 33.2075 106.351 33.2075C105.031 33.2075 103.932 33.6513 103.059 34.5389C102.182 35.4266 101.745 36.5325 101.745 37.8497C101.745 39.1668 102.182 40.2727 103.059 41.1604C103.936 42.048 105.034 42.4918 106.351 42.4918C107.214 42.4918 108.001 42.2806 108.71 41.8619C109.419 41.4431 109.97 40.8776 110.367 40.1689L115.049 42.9965C114.172 44.4603 112.973 45.6093 111.448 46.4432C109.923 47.2771 108.227 47.6959 106.355 47.6959Z" fill="white"/>
<path d="M126.373 47.6959C123.481 47.6959 121.065 46.7546 119.129 44.8684C117.189 42.9857 116.223 40.645 116.223 37.8497C116.223 35.0543 117.193 32.7136 119.129 30.8309C121.065 28.9483 123.481 28.0034 126.373 28.0034C128.281 28.0034 130.01 28.4329 131.556 29.2919C133.106 30.1509 134.316 31.332 135.192 32.8388C136.069 34.3457 136.506 36.0171 136.506 37.8532C136.506 39.6893 136.069 41.3608 135.192 42.8676C134.316 44.3744 133.106 45.5556 131.556 46.4146C130.006 47.2736 128.281 47.7031 126.373 47.7031V47.6959ZM123.077 41.1604C123.954 42.048 125.053 42.4918 126.37 42.4918C127.687 42.4918 128.789 42.048 129.663 41.1604C130.54 40.2727 130.976 39.1668 130.976 37.8497C130.976 36.5325 130.54 35.4266 129.663 34.5389C128.786 33.6513 127.687 33.2075 126.37 33.2075C125.053 33.2075 123.95 33.6513 123.077 34.5389C122.2 35.4266 121.763 36.5325 121.763 37.8497C121.763 39.1668 122.2 40.2727 123.077 41.1604Z" fill="white"/>
<path d="M148.224 47.6959C145.547 47.6959 143.396 46.9657 141.771 45.509C140.146 44.0523 139.333 42.1231 139.333 39.7215V28.4543H144.716V38.9842C144.716 40.0401 145.038 40.8883 145.679 41.5326C146.32 42.1732 147.172 42.4953 148.227 42.4953C149.283 42.4953 150.128 42.1732 150.765 41.5326C151.402 40.8919 151.721 40.0401 151.721 38.9842V28.4543H157.104V39.7215C157.104 42.1231 156.295 44.0523 154.684 45.509C153.07 46.9657 150.919 47.6959 148.231 47.6959H148.224Z" fill="white"/>
<path d="M171.535 28.1466H172.344V33.6729H171.535C169.913 33.6729 168.664 34.1059 167.78 34.9685C166.9 35.8311 166.456 37.0015 166.456 38.4797V47.245H161.073V28.4509H166.456V30.5733C167.848 28.952 169.541 28.1431 171.531 28.1431L171.535 28.1466Z" fill="white"/>
<path d="M187.197 33.347H182.373V40.2405C182.373 41.7401 183.16 42.4917 184.731 42.4917C185.511 42.4917 186.335 42.2698 187.197 41.826V46.8834C186.131 47.4238 184.928 47.6922 183.597 47.6922C181.388 47.6922 179.735 47.1017 178.636 45.9206C177.537 44.7395 176.989 43.1396 176.989 41.1245V33.347H174.144V28.4507H176.989V23.7871H182.373V28.4507H187.197V33.347Z" fill="white"/>
<path d="M214.27 28.4507H220.14L213.533 47.2448H208.006L204.477 35.1115L200.93 47.2448H195.404L188.797 28.4507H194.81L198.285 40.2404L201.814 28.4507H207.269L210.816 40.2762L214.274 28.4507H214.27Z" fill="white"/>
<path d="M225.143 26.0384C224.206 26.0384 223.422 25.7235 222.785 25.0935C222.148 24.4636 221.829 23.6762 221.829 22.7277C221.829 21.7792 222.148 21.0133 222.785 20.387C223.422 19.7642 224.206 19.4492 225.143 19.4492C226.081 19.4492 226.904 19.7606 227.545 20.387C228.186 21.0097 228.508 21.79 228.508 22.7277C228.508 23.6655 228.186 24.4636 227.545 25.0935C226.904 25.7235 226.103 26.0384 225.143 26.0384ZM222.459 47.2449V28.4508H227.842V47.2449H222.459Z" fill="white"/>
<path d="M243.197 28.0034C245.358 28.0034 247.098 28.6548 248.419 29.9576C249.739 31.2604 250.398 32.9892 250.398 35.151V47.2485H245.015V36.9692C245.015 35.8274 244.682 34.9183 244.016 34.2347C243.35 33.5511 242.466 33.2075 241.36 33.2075C240.255 33.2075 239.274 33.5583 238.562 34.2598C237.846 34.9613 237.491 35.8883 237.491 37.0408V47.2485H232.108V28.4544H237.491V30.3263C239.002 28.7765 240.906 28.0034 243.197 28.0034Z" fill="white"/>
</svg>
