<svg width="251" height="68" viewBox="0 0 251 68" fill="none" xmlns="http://www.w3.org/2000/svg">
<path d="M73.9631 8.30363C72.5028 7.19767 70.4198 7.484 69.3138 8.94787C68.2078 10.4082 68.4942 12.4877 69.9545 13.5972C77.009 18.9373 81.5688 27.0906 81.5688 34.3634C81.5688 38.7729 77.9825 42.3592 73.5766 42.3592C69.1706 42.3592 65.5843 38.7729 65.5843 34.3634V25.4334C65.5843 23.6009 64.099 22.1156 62.2665 22.1156C60.4339 22.1156 58.9486 23.6009 58.9486 25.4334V34.3634C58.9486 34.6748 58.9307 34.9826 58.8985 35.2868C58.8985 35.294 58.8985 35.3047 58.8949 35.3119C58.426 39.3277 55.0115 42.3592 50.9563 42.3592C46.5504 42.3592 42.9641 38.7729 42.9641 34.3634C42.9641 27.1407 47.4846 19.0196 54.4782 13.6723C54.6286 13.5578 54.7717 13.429 54.9041 13.2822C54.9793 13.1999 55.0509 13.114 55.1189 13.0245C55.1475 12.9887 55.1726 12.9494 55.2012 12.9136C55.3372 12.7131 55.4482 12.502 55.5377 12.2836C55.5591 12.2335 55.577 12.187 55.5949 12.1369C55.6164 12.0796 55.6343 12.0188 55.6522 11.9615C55.6522 11.9544 55.6558 11.9436 55.6593 11.9365C55.688 11.8362 55.7095 11.7396 55.7274 11.6394C55.7417 11.5571 55.7524 11.4748 55.7596 11.396C55.7667 11.3387 55.7739 11.2851 55.7739 11.2242C55.7739 11.1634 55.7775 11.1025 55.7775 11.0417C55.7775 10.9844 55.7775 10.9307 55.7739 10.8735C55.7739 10.8162 55.7703 10.7625 55.7596 10.7088C55.756 10.6515 55.7452 10.5979 55.7381 10.5406C55.7345 10.5084 55.7274 10.4797 55.7238 10.4475C55.713 10.3831 55.6987 10.3187 55.6844 10.2578C55.6271 10.0145 55.5377 9.77466 55.4231 9.54559C55.4017 9.50622 55.3838 9.47043 55.3587 9.43464C55.1941 9.13041 54.9722 8.85124 54.7037 8.60427C54.6894 8.59354 54.6822 8.5828 54.6679 8.57206C48.6442 3.0387 40.8775 0 32.7886 0C14.7103 0 0 15.0467 0 33.5402C0 52.0337 14.7103 67.0804 32.7886 67.0804C41.1602 67.0804 49.1274 63.8556 55.2263 58.0001C59.013 54.3673 61.8584 49.9291 63.6015 45.0508C66.2143 47.4917 69.7254 48.9914 73.5766 48.9914C81.644 48.9914 88.2046 42.4272 88.2046 34.3598C88.2046 25.0863 82.6139 14.857 73.9631 8.30363ZM32.7886 60.4447C18.3682 60.4447 6.63574 48.3758 6.63574 33.5402C6.63574 18.7046 18.3682 6.63574 32.7886 6.63574C37.6061 6.63574 42.2841 7.99224 46.3392 10.5263C46.8117 10.8198 46.8833 11.4783 46.4931 11.8756C44.1595 14.2343 42.123 16.9007 40.4909 19.7497C37.9032 24.2738 36.4715 29.0555 36.3355 33.6333C36.0886 41.8116 42.4415 48.8053 50.6199 48.9878C51.665 49.0129 52.6851 48.9234 53.6693 48.7373C53.9593 48.6836 54.1704 49.0057 54.0022 49.2491C49.2276 56.0387 41.4537 60.4447 32.7886 60.4447Z" fill="#E5B547"/>
<path d="M106.355 47.6957C103.463 47.6957 101.047 46.7544 99.1108 44.8682C97.1709 42.9856 96.2045 40.6448 96.2045 37.8495C96.2045 35.0542 97.1745 32.7134 99.1108 30.8308C101.047 28.9481 103.463 28.0032 106.355 28.0032C108.227 28.0032 109.923 28.422 111.448 29.2559C112.973 30.0899 114.172 31.2316 115.049 32.6848L110.367 35.5302C109.97 34.8215 109.419 34.2596 108.71 33.8372C108.001 33.4185 107.218 33.2073 106.351 33.2073C105.031 33.2073 103.932 33.6511 103.059 34.5388C102.182 35.4264 101.745 36.5323 101.745 37.8495C101.745 39.1666 102.182 40.2726 103.059 41.1602C103.935 42.0478 105.034 42.4916 106.351 42.4916C107.214 42.4916 108.001 42.2805 108.71 41.8617C109.419 41.4429 109.97 40.8774 110.367 40.1688L115.049 42.9963C114.172 44.4602 112.973 45.6091 111.448 46.443C109.923 47.277 108.227 47.6957 106.355 47.6957Z" fill="white"/>
<path d="M126.373 47.6957C123.481 47.6957 121.065 46.7544 119.129 44.8682C117.189 42.9856 116.223 40.6448 116.223 37.8495C116.223 35.0542 117.193 32.7134 119.129 30.8308C121.065 28.9481 123.481 28.0032 126.373 28.0032C128.281 28.0032 130.01 28.4327 131.556 29.2917C133.106 30.1507 134.315 31.3318 135.192 32.8387C136.069 34.3455 136.506 36.017 136.506 37.8531C136.506 39.6892 136.069 41.3606 135.192 42.8674C134.315 44.3743 133.106 45.5554 131.556 46.4144C130.006 47.2734 128.281 47.7029 126.373 47.7029V47.6957ZM123.077 41.1602C123.954 42.0478 125.053 42.4916 126.37 42.4916C127.687 42.4916 128.789 42.0478 129.662 41.1602C130.539 40.2726 130.976 39.1666 130.976 37.8495C130.976 36.5323 130.539 35.4264 129.662 34.5388C128.786 33.6511 127.687 33.2073 126.37 33.2073C125.053 33.2073 123.95 33.6511 123.077 34.5388C122.2 35.4264 121.763 36.5323 121.763 37.8495C121.763 39.1666 122.2 40.2726 123.077 41.1602Z" fill="white"/>
<path d="M148.224 47.6957C145.547 47.6957 143.396 46.9656 141.771 45.5089C140.146 44.0522 139.333 42.123 139.333 39.7214V28.4542H144.716V38.9841C144.716 40.0399 145.038 40.8882 145.679 41.5324C146.32 42.1731 147.172 42.4952 148.227 42.4952C149.283 42.4952 150.128 42.1731 150.765 41.5324C151.402 40.8918 151.721 40.0399 151.721 38.9841V28.4542H157.104V39.7214C157.104 42.123 156.295 44.0522 154.684 45.5089C153.07 46.9656 150.919 47.6957 148.231 47.6957H148.224Z" fill="white"/>
<path d="M171.535 28.1464H172.344V33.6726H171.535C169.914 33.6726 168.664 34.1057 167.78 34.9683C166.9 35.8308 166.456 37.0012 166.456 38.4794V47.2447H161.073V28.4506H166.456V30.5731C167.848 28.9517 169.541 28.1428 171.531 28.1428L171.535 28.1464Z" fill="white"/>
<path d="M187.197 33.347H182.373V40.2404C182.373 41.7401 183.16 42.4917 184.731 42.4917C185.511 42.4917 186.335 42.2698 187.197 41.826V46.8833C186.131 47.4238 184.928 47.6922 183.597 47.6922C181.388 47.6922 179.735 47.1016 178.636 45.9205C177.537 44.7394 176.989 43.1395 176.989 41.1244V33.347H174.144V28.4507H176.989V23.787H182.373V28.4507H187.197V33.347Z" fill="white"/>
<path d="M214.27 28.4507H220.14L213.533 47.2448H208.006L204.477 35.1115L200.93 47.2448H195.404L188.797 28.4507H194.81L198.285 40.2404L201.814 28.4507H207.269L210.816 40.2762L214.273 28.4507H214.27Z" fill="white"/>
<path d="M225.143 26.0383C224.206 26.0383 223.422 25.7233 222.785 25.0934C222.148 24.4635 221.829 23.6761 221.829 22.7276C221.829 21.7791 222.148 21.0132 222.785 20.3868C223.422 19.7641 224.206 19.4491 225.143 19.4491C226.081 19.4491 226.904 19.7605 227.545 20.3868C228.186 21.0096 228.508 21.7899 228.508 22.7276C228.508 23.6653 228.186 24.4635 227.545 25.0934C226.904 25.7233 226.103 26.0383 225.143 26.0383ZM222.459 47.2448V28.4507H227.842V47.2448H222.459Z" fill="white"/>
<path d="M243.197 28.0032C245.358 28.0032 247.098 28.6546 248.419 29.9575C249.739 31.2603 250.398 32.989 250.398 35.1508V47.2483H245.015V36.969C245.015 35.8273 244.682 34.9182 244.016 34.2345C243.35 33.5509 242.466 33.2073 241.36 33.2073C240.255 33.2073 239.274 33.5581 238.562 34.2596C237.846 34.9611 237.491 35.8881 237.491 37.0406V47.2483H232.108V28.4542H237.491V30.3261C239.002 28.7763 240.906 28.0032 243.197 28.0032Z" fill="white"/>
</svg>
