<svg width="22" height="24" viewBox="0 0 22 24" fill="none" xmlns="http://www.w3.org/2000/svg">
<path fill-rule="evenodd" clip-rule="evenodd" d="M16.5115 11.3862C16.8491 11.3862 17.1407 11.6624 17.1407 12.0153C17.1407 12.3529 16.8645 12.6445 16.5115 12.6445C16.1739 12.6445 15.8824 12.3683 15.8824 12.0153C15.8824 11.6624 16.1739 11.3862 16.5115 11.3862ZM16.5115 13.243C16.8491 13.243 17.1407 13.5192 17.1407 13.8721C17.1407 14.2097 16.8645 14.5013 16.5115 14.5013C16.1739 14.5013 15.8824 14.2251 15.8824 13.8721C15.8824 13.5192 16.1739 13.243 16.5115 13.243ZM14.6547 9.52941C14.9923 9.52941 15.2839 9.80563 15.2839 10.1586C15.2839 10.4962 15.0077 10.7877 14.6547 10.7877C14.3171 10.7877 14.0256 10.5115 14.0256 10.1586C14.0256 9.80563 14.3018 9.52941 14.6547 9.52941ZM14.6547 11.3862C14.9923 11.3862 15.2839 11.6624 15.2839 12.0153C15.2839 12.3529 15.0077 12.6445 14.6547 12.6445C14.3171 12.6445 14.0256 12.3683 14.0256 12.0153C14.0256 11.6624 14.3018 11.3862 14.6547 11.3862ZM14.6547 13.243C14.9923 13.243 15.2839 13.5192 15.2839 13.8721C15.2839 14.2097 15.0077 14.5013 14.6547 14.5013C14.3171 14.5013 14.0256 14.2251 14.0256 13.8721C14.0256 13.5192 14.3018 13.243 14.6547 13.243ZM14.6547 15.0997C14.9923 15.0997 15.2839 15.376 15.2839 15.7289C15.2839 16.0665 15.0077 16.3581 14.6547 16.3581C14.3171 16.3581 14.0256 16.0818 14.0256 15.7289C14.0256 15.376 14.3018 15.0997 14.6547 15.0997ZM14.6547 7.65729C14.9923 7.65729 15.2839 7.9335 15.2839 8.28644C15.2839 8.62404 15.0077 8.9156 14.6547 8.9156C14.3171 8.9156 14.0256 8.63939 14.0256 8.28644C14.0256 7.9335 14.3018 7.65729 14.6547 7.65729ZM12.798 9.52941C13.1356 9.52941 13.4271 9.80563 13.4271 10.1586C13.4271 10.4962 13.1509 10.7877 12.798 10.7877C12.4604 10.7877 12.1688 10.5115 12.1688 10.1586C12.1688 9.80563 12.445 9.52941 12.798 9.52941ZM12.798 11.3862C13.1356 11.3862 13.4271 11.6624 13.4271 12.0153C13.4271 12.3529 13.1509 12.6445 12.798 12.6445C12.4604 12.6445 12.1688 12.3683 12.1688 12.0153C12.1688 11.6624 12.445 11.3862 12.798 11.3862ZM12.798 13.243C13.1356 13.243 13.4271 13.5192 13.4271 13.8721C13.4271 14.2097 13.1509 14.5013 12.798 14.5013C12.4604 14.5013 12.1688 14.2251 12.1688 13.8721C12.1688 13.5192 12.445 13.243 12.798 13.243ZM12.798 15.0997C13.1356 15.0997 13.4271 15.376 13.4271 15.7289C13.4271 16.0665 13.1509 16.3581 12.798 16.3581C12.4604 16.3581 12.1688 16.0818 12.1688 15.7289C12.1688 15.376 12.445 15.0997 12.798 15.0997ZM12.798 7.65729C13.1356 7.65729 13.4271 7.9335 13.4271 8.28644C13.4271 8.62404 13.1509 8.9156 12.798 8.9156C12.4604 8.9156 12.1688 8.63939 12.1688 8.28644C12.1688 7.9335 12.445 7.65729 12.798 7.65729ZM10.9258 9.52941C11.2634 9.52941 11.555 9.80563 11.555 10.1586C11.555 10.4962 11.2788 10.7877 10.9258 10.7877C10.5882 10.7877 10.2967 10.5115 10.2967 10.1586C10.312 9.80563 10.5882 9.52941 10.9258 9.52941ZM10.9258 11.3862C11.2634 11.3862 11.555 11.6624 11.555 12.0153C11.555 12.3529 11.2788 12.6445 10.9258 12.6445C10.5882 12.6445 10.2967 12.3683 10.2967 12.0153C10.312 11.6624 10.5882 11.3862 10.9258 11.3862ZM10.9258 13.243C11.2634 13.243 11.555 13.5192 11.555 13.8721C11.555 14.2097 11.2788 14.5013 10.9258 14.5013C10.5882 14.5013 10.2967 14.2251 10.2967 13.8721C10.312 13.5192 10.5882 13.243 10.9258 13.243ZM10.9258 15.0997C11.2634 15.0997 11.555 15.376 11.555 15.7289C11.555 16.0665 11.2788 16.3581 10.9258 16.3581C10.5882 16.3581 10.2967 16.0818 10.2967 15.7289C10.312 15.376 10.5882 15.0997 10.9258 15.0997ZM10.9258 7.65729C11.2634 7.65729 11.555 7.9335 11.555 8.28644C11.555 8.62404 11.2788 8.9156 10.9258 8.9156C10.5882 8.9156 10.2967 8.63939 10.2967 8.28644C10.312 7.9335 10.5882 7.65729 10.9258 7.65729ZM9.06906 9.52941C9.40665 9.52941 9.69821 9.80563 9.69821 10.1586C9.69821 10.4962 9.422 10.7877 9.06906 10.7877C8.73146 10.7877 8.4399 10.5115 8.4399 10.1586C8.4399 9.80563 8.73146 9.52941 9.06906 9.52941ZM9.06906 11.3862C9.40665 11.3862 9.69821 11.6624 9.69821 12.0153C9.69821 12.3529 9.422 12.6445 9.06906 12.6445C8.73146 12.6445 8.4399 12.3683 8.4399 12.0153C8.4399 11.6624 8.73146 11.3862 9.06906 11.3862ZM9.06906 13.243C9.40665 13.243 9.69821 13.5192 9.69821 13.8721C9.69821 14.2097 9.422 14.5013 9.06906 14.5013C8.73146 14.5013 8.4399 14.2251 8.4399 13.8721C8.4399 13.5192 8.73146 13.243 9.06906 13.243ZM16.5115 9.52941C16.8491 9.52941 17.1407 9.80563 17.1407 10.1586C17.1407 10.4962 16.8645 10.7877 16.5115 10.7877C16.1739 10.7877 15.8824 10.5115 15.8824 10.1586C15.8824 9.80563 16.1739 9.52941 16.5115 9.52941ZM5.01791 12C5.01791 11.4476 5.06394 10.9105 5.15601 10.4041C5.81586 6.09207 8.70077 4.21995 12.3836 4.21995C15.1458 4.21995 17.4322 5.5243 19.4425 6.96675L21.9437 4.66496C19.9642 1.94885 16.4194 0 12.0614 0C5.15601 0 0 4.92583 0 12C0 19.0742 5.15601 24 12.0614 24C16.4194 24 19.9642 22.0512 21.9437 19.335L19.4425 17.0332C17.4322 18.4757 15.1458 19.7801 12.3836 19.7801C8.70077 19.7801 5.81586 17.9079 5.15601 13.5959C5.06394 13.0895 5.01791 12.5678 5.01791 12Z" fill="#EEEEEE"/>
</svg>
