<svg width="26" height="24" viewBox="0 0 26 24" fill="none" xmlns="http://www.w3.org/2000/svg">
<path fill-rule="evenodd" clip-rule="evenodd" d="M16.4791 14.09C17.6048 14.09 18.5868 13.6926 19.2862 13.0045C19.2335 12.9415 19.1808 12.8834 19.1233 12.8252C18.4479 12.1419 17.5186 11.7203 16.4886 11.7203C15.4587 11.7203 14.5294 12.1419 13.8539 12.8252C13.7964 12.8834 13.739 12.9464 13.6815 13.0142C14.3857 13.6926 15.3629 14.09 16.4791 14.09ZM19.5353 12.738C20.1006 12.0644 20.4311 11.1679 20.4311 10.1357C20.4311 9.09866 20.1006 8.207 19.5401 7.53341C19.4874 7.59156 19.4347 7.64971 19.382 7.70302C18.6443 8.4493 17.6192 8.91451 16.4934 8.91451C15.3629 8.91451 14.3425 8.4493 13.6048 7.70302C13.5473 7.64487 13.4946 7.58672 13.4372 7.52372C13.0348 8.00347 12.7473 8.59468 12.618 9.26826C12.9917 9.5251 13.3461 9.7044 13.6863 9.68986H15.8707V10.1357V10.5815H13.6863C13.3414 10.567 12.9917 10.7463 12.618 11.0031C12.7473 11.6767 13.0348 12.2679 13.4372 12.7477C13.4899 12.6847 13.5473 12.6265 13.6048 12.5684C14.3425 11.8221 15.3677 11.3569 16.4934 11.3569C17.624 11.3569 18.6443 11.8221 19.382 12.5684C19.4347 12.6217 19.4874 12.6798 19.5353 12.738ZM19.291 7.26688C18.5868 6.57875 17.6096 6.18623 16.4791 6.18623C15.3581 6.18623 14.3809 6.5836 13.6815 7.26204C13.739 7.32503 13.7964 7.38803 13.8539 7.45103C14.5294 8.13431 15.4587 8.55591 16.4886 8.55591C17.5186 8.55591 18.4479 8.13431 19.1233 7.45103C19.1808 7.38803 19.2383 7.32988 19.291 7.26688ZM6.85997 10.1357C6.85997 9.95155 6.87434 9.77709 6.90308 9.60748C7.11865 8.18761 8.05756 7.57218 9.25516 7.57218C10.151 7.57218 10.8983 8.00347 11.5545 8.47837L12.3689 7.7224C11.7222 6.83074 10.5725 6.18623 9.14977 6.18623C6.89829 6.18623 5.22166 7.80963 5.22166 10.1405C5.22166 12.4714 6.90308 14.0948 9.14977 14.0948C10.5725 14.0948 11.7222 13.4503 12.3689 12.5587L11.5545 11.8027C10.8983 12.2776 10.1558 12.7089 9.25516 12.7089C8.05756 12.7089 7.11865 12.0935 6.90308 10.6687C6.87434 10.4943 6.85997 10.3198 6.85997 10.1357ZM10.6013 9.31672C10.7114 9.31672 10.8025 9.4088 10.8025 9.52026C10.8025 9.63171 10.7114 9.72379 10.6013 9.72379C10.4911 9.72379 10.4001 9.63171 10.4001 9.52026C10.3953 9.4088 10.4863 9.31672 10.6013 9.31672ZM8.17732 10.5428C8.2875 10.5428 8.37852 10.6348 8.37852 10.7463C8.37852 10.8577 8.2875 10.9498 8.17732 10.9498C8.06714 10.9498 7.97613 10.8577 7.97613 10.7463C7.97613 10.6348 8.06235 10.5428 8.17732 10.5428ZM8.17732 9.93216C8.2875 9.93216 8.37852 10.0242 8.37852 10.1357C8.37852 10.2472 8.2875 10.3392 8.17732 10.3392C8.06714 10.3392 7.97613 10.2472 7.97613 10.1357C7.97134 10.0242 8.06235 9.93216 8.17732 9.93216ZM8.17732 9.31672C8.2875 9.31672 8.37852 9.4088 8.37852 9.52026C8.37852 9.63171 8.2875 9.72379 8.17732 9.72379C8.06714 9.72379 7.97613 9.63171 7.97613 9.52026C7.97134 9.4088 8.06235 9.31672 8.17732 9.31672ZM8.78091 8.70613C8.89109 8.70613 8.98211 8.79821 8.98211 8.90966C8.98211 9.02112 8.89109 9.11319 8.78091 9.11319C8.67073 9.11319 8.57971 9.02112 8.57971 8.90966C8.57971 8.79821 8.67073 8.70613 8.78091 8.70613ZM8.78091 11.1582C8.89109 11.1582 8.98211 11.2503 8.98211 11.3617C8.98211 11.4732 8.89109 11.5653 8.78091 11.5653C8.67073 11.5653 8.57971 11.4732 8.57971 11.3617C8.57971 11.2503 8.67073 11.1582 8.78091 11.1582ZM8.78091 10.5428C8.89109 10.5428 8.98211 10.6348 8.98211 10.7463C8.98211 10.8577 8.89109 10.9498 8.78091 10.9498C8.67073 10.9498 8.57971 10.8577 8.57971 10.7463C8.57971 10.6348 8.67073 10.5428 8.78091 10.5428ZM8.78091 9.93216C8.89109 9.93216 8.98211 10.0242 8.98211 10.1357C8.98211 10.2472 8.89109 10.3392 8.78091 10.3392C8.67073 10.3392 8.57971 10.2472 8.57971 10.1357C8.57971 10.0242 8.67073 9.93216 8.78091 9.93216ZM8.78091 9.31672C8.89109 9.31672 8.98211 9.4088 8.98211 9.52026C8.98211 9.63171 8.89109 9.72379 8.78091 9.72379C8.67073 9.72379 8.57971 9.63171 8.57971 9.52026C8.57971 9.4088 8.67073 9.31672 8.78091 9.31672ZM9.38929 8.70613C9.49947 8.70613 9.59049 8.79821 9.59049 8.90966C9.59049 9.02112 9.49947 9.11319 9.38929 9.11319C9.27911 9.11319 9.18809 9.02112 9.18809 8.90966C9.1833 8.79821 9.27432 8.70613 9.38929 8.70613ZM9.38929 11.1582C9.49947 11.1582 9.59049 11.2503 9.59049 11.3617C9.59049 11.4732 9.49947 11.5653 9.38929 11.5653C9.27911 11.5653 9.18809 11.4732 9.18809 11.3617C9.1833 11.2503 9.27432 11.1582 9.38929 11.1582ZM9.38929 10.5428C9.49947 10.5428 9.59049 10.6348 9.59049 10.7463C9.59049 10.8577 9.49947 10.9498 9.38929 10.9498C9.27911 10.9498 9.18809 10.8577 9.18809 10.7463C9.18809 10.6348 9.27432 10.5428 9.38929 10.5428ZM9.38929 9.93216C9.49947 9.93216 9.59049 10.0242 9.59049 10.1357C9.59049 10.2472 9.49947 10.3392 9.38929 10.3392C9.27911 10.3392 9.18809 10.2472 9.18809 10.1357C9.1833 10.0242 9.27432 9.93216 9.38929 9.93216ZM9.38929 9.31672C9.49947 9.31672 9.59049 9.4088 9.59049 9.52026C9.59049 9.63171 9.49947 9.72379 9.38929 9.72379C9.27911 9.72379 9.18809 9.63171 9.18809 9.52026C9.1833 9.4088 9.27432 9.31672 9.38929 9.31672ZM9.99288 8.70613C10.1031 8.70613 10.1941 8.79821 10.1941 8.90966C10.1941 9.02112 10.1031 9.11319 9.99288 9.11319C9.8827 9.11319 9.79168 9.02112 9.79168 8.90966C9.79168 8.79821 9.8827 8.70613 9.99288 8.70613ZM9.99288 11.1582C10.1031 11.1582 10.1941 11.2503 10.1941 11.3617C10.1941 11.4732 10.1031 11.5653 9.99288 11.5653C9.8827 11.5653 9.79168 11.4732 9.79168 11.3617C9.79168 11.2503 9.8827 11.1582 9.99288 11.1582ZM9.99288 10.5428C10.1031 10.5428 10.1941 10.6348 10.1941 10.7463C10.1941 10.8577 10.1031 10.9498 9.99288 10.9498C9.8827 10.9498 9.79168 10.8577 9.79168 10.7463C9.79168 10.6348 9.8827 10.5428 9.99288 10.5428ZM9.99288 9.93216C10.1031 9.93216 10.1941 10.0242 10.1941 10.1357C10.1941 10.2472 10.1031 10.3392 9.99288 10.3392C9.8827 10.3392 9.79168 10.2472 9.79168 10.1357C9.79168 10.0242 9.8827 9.93216 9.99288 9.93216ZM9.99288 9.31672C10.1031 9.31672 10.1941 9.4088 10.1941 9.52026C10.1941 9.63171 10.1031 9.72379 9.99288 9.72379C9.8827 9.72379 9.79168 9.63171 9.79168 9.52026C9.79168 9.4088 9.8827 9.31672 9.99288 9.31672ZM10.6013 10.5428C10.7114 10.5428 10.8025 10.6348 10.8025 10.7463C10.8025 10.8577 10.7114 10.9498 10.6013 10.9498C10.4911 10.9498 10.4001 10.8577 10.4001 10.7463C10.4001 10.6348 10.4863 10.5428 10.6013 10.5428ZM10.6013 9.93216C10.7114 9.93216 10.8025 10.0242 10.8025 10.1357C10.8025 10.2472 10.7114 10.3392 10.6013 10.3392C10.4911 10.3392 10.4001 10.2472 10.4001 10.1357C10.3953 10.0242 10.4863 9.93216 10.6013 9.93216ZM12.8288 24C10.4432 20.4334 6.23722 17.1817 3.86598 14.909C-1.24536 10.0049 -0.627401 4.6016 1.92587 2.07201C5.93542 -1.89684 11.3725 0.463146 12.824 3.90378C14.2803 0.463146 19.7174 -1.89684 23.7269 2.07201C26.285 4.6016 26.8981 10.0049 21.7916 14.9041C19.4204 17.1817 15.2096 20.4285 12.8288 24Z" fill="#E5B547"/>
</svg>
