<svg width="48" height="48" viewBox="0 0 48 48" fill="none" xmlns="http://www.w3.org/2000/svg">
<g clip-path="url(#clip0_1820_12547)">
<path d="M24 4C16.26 4 10 10.26 10 18C10 26.34 18.84 37.84 22.48 42.22C23.28 43.18 24.74 43.18 25.54 42.22C29.16 37.84 38 26.34 38 18C38 10.26 31.74 4 24 4Z" fill="#505267"/>
<path fill-rule="evenodd" clip-rule="evenodd" d="M26.7818 16.6419C26.9818 16.6419 27.1545 16.8031 27.1545 17.009C27.1545 17.2059 26.9909 17.376 26.7818 17.376C26.5818 17.376 26.4091 17.2148 26.4091 17.009C26.4091 16.8031 26.5818 16.6419 26.7818 16.6419ZM26.7818 17.7251C26.9818 17.7251 27.1545 17.8862 27.1545 18.0921C27.1545 18.289 26.9909 18.4591 26.7818 18.4591C26.5818 18.4591 26.4091 18.298 26.4091 18.0921C26.4091 17.8862 26.5818 17.7251 26.7818 17.7251ZM25.6818 15.5588C25.8818 15.5588 26.0545 15.7199 26.0545 15.9258C26.0545 16.1228 25.8909 16.2928 25.6818 16.2928C25.4818 16.2928 25.3091 16.1317 25.3091 15.9258C25.3091 15.7199 25.4727 15.5588 25.6818 15.5588ZM25.6818 16.6419C25.8818 16.6419 26.0545 16.8031 26.0545 17.009C26.0545 17.2059 25.8909 17.376 25.6818 17.376C25.4818 17.376 25.3091 17.2148 25.3091 17.009C25.3091 16.8031 25.4727 16.6419 25.6818 16.6419ZM25.6818 17.7251C25.8818 17.7251 26.0545 17.8862 26.0545 18.0921C26.0545 18.289 25.8909 18.4591 25.6818 18.4591C25.4818 18.4591 25.3091 18.298 25.3091 18.0921C25.3091 17.8862 25.4727 17.7251 25.6818 17.7251ZM25.6818 18.8082C25.8818 18.8082 26.0545 18.9693 26.0545 19.1752C26.0545 19.3721 25.8909 19.5422 25.6818 19.5422C25.4818 19.5422 25.3091 19.3811 25.3091 19.1752C25.3091 18.9693 25.4727 18.8082 25.6818 18.8082ZM25.6818 14.4668C25.8818 14.4668 26.0545 14.6279 26.0545 14.8338C26.0545 15.0307 25.8909 15.2008 25.6818 15.2008C25.4818 15.2008 25.3091 15.0396 25.3091 14.8338C25.3091 14.6279 25.4727 14.4668 25.6818 14.4668ZM24.5818 15.5588C24.7818 15.5588 24.9545 15.7199 24.9545 15.9258C24.9545 16.1228 24.7909 16.2928 24.5818 16.2928C24.3818 16.2928 24.2091 16.1317 24.2091 15.9258C24.2091 15.7199 24.3727 15.5588 24.5818 15.5588ZM24.5818 16.6419C24.7818 16.6419 24.9545 16.8031 24.9545 17.009C24.9545 17.2059 24.7909 17.376 24.5818 17.376C24.3818 17.376 24.2091 17.2148 24.2091 17.009C24.2091 16.8031 24.3727 16.6419 24.5818 16.6419ZM24.5818 17.7251C24.7818 17.7251 24.9545 17.8862 24.9545 18.0921C24.9545 18.289 24.7909 18.4591 24.5818 18.4591C24.3818 18.4591 24.2091 18.298 24.2091 18.0921C24.2091 17.8862 24.3727 17.7251 24.5818 17.7251ZM24.5818 18.8082C24.7818 18.8082 24.9545 18.9693 24.9545 19.1752C24.9545 19.3721 24.7909 19.5422 24.5818 19.5422C24.3818 19.5422 24.2091 19.3811 24.2091 19.1752C24.2091 18.9693 24.3727 18.8082 24.5818 18.8082ZM24.5818 14.4668C24.7818 14.4668 24.9545 14.6279 24.9545 14.8338C24.9545 15.0307 24.7909 15.2008 24.5818 15.2008C24.3818 15.2008 24.2091 15.0396 24.2091 14.8338C24.2091 14.6279 24.3727 14.4668 24.5818 14.4668ZM23.4727 15.5588C23.6727 15.5588 23.8455 15.7199 23.8455 15.9258C23.8455 16.1228 23.6818 16.2928 23.4727 16.2928C23.2727 16.2928 23.1 16.1317 23.1 15.9258C23.1091 15.7199 23.2727 15.5588 23.4727 15.5588ZM23.4727 16.6419C23.6727 16.6419 23.8455 16.8031 23.8455 17.009C23.8455 17.2059 23.6818 17.376 23.4727 17.376C23.2727 17.376 23.1 17.2148 23.1 17.009C23.1091 16.8031 23.2727 16.6419 23.4727 16.6419ZM23.4727 17.7251C23.6727 17.7251 23.8455 17.8862 23.8455 18.0921C23.8455 18.289 23.6818 18.4591 23.4727 18.4591C23.2727 18.4591 23.1 18.298 23.1 18.0921C23.1091 17.8862 23.2727 17.7251 23.4727 17.7251ZM23.4727 18.8082C23.6727 18.8082 23.8455 18.9693 23.8455 19.1752C23.8455 19.3721 23.6818 19.5422 23.4727 19.5422C23.2727 19.5422 23.1 19.3811 23.1 19.1752C23.1091 18.9693 23.2727 18.8082 23.4727 18.8082ZM23.4727 14.4668C23.6727 14.4668 23.8455 14.6279 23.8455 14.8338C23.8455 15.0307 23.6818 15.2008 23.4727 15.2008C23.2727 15.2008 23.1 15.0396 23.1 14.8338C23.1091 14.6279 23.2727 14.4668 23.4727 14.4668ZM22.3727 15.5588C22.5727 15.5588 22.7455 15.7199 22.7455 15.9258C22.7455 16.1228 22.5818 16.2928 22.3727 16.2928C22.1727 16.2928 22 16.1317 22 15.9258C22 15.7199 22.1727 15.5588 22.3727 15.5588ZM22.3727 16.6419C22.5727 16.6419 22.7455 16.8031 22.7455 17.009C22.7455 17.2059 22.5818 17.376 22.3727 17.376C22.1727 17.376 22 17.2148 22 17.009C22 16.8031 22.1727 16.6419 22.3727 16.6419ZM22.3727 17.7251C22.5727 17.7251 22.7455 17.8862 22.7455 18.0921C22.7455 18.289 22.5818 18.4591 22.3727 18.4591C22.1727 18.4591 22 18.298 22 18.0921C22 17.8862 22.1727 17.7251 22.3727 17.7251ZM26.7818 15.5588C26.9818 15.5588 27.1545 15.7199 27.1545 15.9258C27.1545 16.1228 26.9909 16.2928 26.7818 16.2928C26.5818 16.2928 26.4091 16.1317 26.4091 15.9258C26.4091 15.7199 26.5818 15.5588 26.7818 15.5588ZM19.9727 17C19.9727 16.6778 20 16.3645 20.0545 16.0691C20.4455 13.5537 22.1545 12.4616 24.3364 12.4616C25.9727 12.4616 27.3273 13.2225 28.5182 14.0639L30 12.7212C28.8273 11.1368 26.7273 10 24.1455 10C20.0545 10 17 12.8734 17 17C17 21.1266 20.0545 24 24.1455 24C26.7273 24 28.8273 22.8632 30 21.2788L28.5182 19.9361C27.3273 20.7775 25.9727 21.5384 24.3364 21.5384C22.1545 21.5384 20.4455 20.4463 20.0545 17.9309C20 17.6356 19.9727 17.3312 19.9727 17Z" fill="#E5B547"/>
</g>
<defs>
<clipPath id="clip0_1820_12547">
<rect width="48" height="48" fill="white"/>
</clipPath>
</defs>
</svg>
