<svg width="250" height="262" viewBox="0 0 250 262" fill="none" xmlns="http://www.w3.org/2000/svg">
<g clip-path="url(#clip0_2231_13827)">
<path d="M96.7085 261.599C150.119 261.599 193.417 253.95 193.417 244.514C193.417 235.078 150.119 227.429 96.7085 227.429C43.2979 227.429 0 235.078 0 244.514C0 253.95 43.2979 261.599 96.7085 261.599Z" fill="black" fill-opacity="0.05"/>
<path d="M155.486 189.028C207.684 189.028 250 146.713 250 94.5141C250 42.3154 207.684 0 155.486 0C103.287 0 60.9717 42.3154 60.9717 94.5141C60.9717 146.713 103.287 189.028 155.486 189.028Z" fill="black" fill-opacity="0.05"/>
<path d="M155.486 172.539C198.578 172.539 233.511 137.606 233.511 94.5142C233.511 51.4225 198.578 16.4897 155.486 16.4897C112.395 16.4897 77.4619 51.4225 77.4619 94.5142C77.4619 137.606 112.395 172.539 155.486 172.539Z" fill="black" fill-opacity="0.05"/>
<path d="M155.486 158.462C190.803 158.462 219.434 129.831 219.434 94.514C219.434 59.1966 190.803 30.5662 155.486 30.5662C120.169 30.5662 91.5381 59.1966 91.5381 94.514C91.5381 129.831 120.169 158.462 155.486 158.462Z" fill="black" fill-opacity="0.05"/>
<path d="M155.486 140.364C180.808 140.364 201.336 119.836 201.336 94.5142C201.336 69.1923 180.808 48.6648 155.486 48.6648C130.164 48.6648 109.637 69.1923 109.637 94.5142C109.637 119.836 130.164 140.364 155.486 140.364Z" fill="black" fill-opacity="0.05"/>
<path d="M61.8092 102.972C61.8092 102.972 54.3785 123.888 57.6811 131.319C60.9836 138.75 66.2126 145.905 66.2126 145.905C66.2126 145.905 64.2861 104.348 61.8092 102.972Z" fill="#D0CDE1"/>
<path opacity="0.1" d="M61.8092 102.972C61.8092 102.972 54.3785 123.888 57.6811 131.319C60.9836 138.75 66.2126 145.905 66.2126 145.905C66.2126 145.905 64.2861 104.348 61.8092 102.972Z" fill="black"/>
<path d="M67.0376 151.41C67.0376 151.41 66.4872 156.639 66.212 156.914C65.9368 157.189 66.4872 157.74 66.212 158.565C65.9368 159.391 65.6616 160.492 66.212 160.767C66.7624 161.042 63.1847 185.261 63.1847 185.261C63.1847 185.261 54.3779 196.82 57.9556 214.984L59.0565 233.423C59.0565 233.423 67.588 233.973 67.588 230.946C67.588 230.946 67.0376 227.368 67.0376 225.717C67.0376 224.066 68.4137 224.066 67.588 223.24C66.7624 222.414 66.7624 221.864 66.7624 221.864C66.7624 221.864 68.1385 220.763 67.8633 220.488C67.588 220.213 70.3402 200.673 70.3402 200.673C70.3402 200.673 73.3675 197.645 73.3675 195.994V194.343C73.3675 194.343 74.7435 190.765 74.7435 190.49C74.7435 190.215 82.1742 173.427 82.1742 173.427L85.2016 185.536L88.5041 202.874C88.5041 202.874 90.1554 218.561 93.4579 224.616C93.4579 224.616 99.2373 244.431 99.2373 243.881C99.2373 243.33 108.87 241.954 108.594 239.477C108.319 237 102.815 202.324 102.815 202.324L104.191 150.859L67.0376 151.41Z" fill="#2F2E41"/>
<path d="M59.6075 232.047C59.6075 232.047 52.1768 246.633 57.1306 247.183C62.0844 247.734 64.0109 247.734 66.2126 245.532C67.4162 244.328 69.8537 242.713 71.8162 241.497C72.9791 240.787 73.9184 239.765 74.5266 238.546C75.1348 237.327 75.3872 235.961 75.2548 234.606C75.1096 233.259 74.6065 232.15 73.3681 232.047C70.0655 231.771 66.2126 228.744 66.2126 228.744L59.6075 232.047Z" fill="#2F2E41"/>
<path d="M100.613 242.78C100.613 242.78 93.1827 257.366 98.1365 257.916C103.09 258.467 105.017 258.467 107.218 256.265C108.422 255.062 110.86 253.447 112.822 252.23C113.985 251.52 114.924 250.498 115.532 249.279C116.141 248.06 116.393 246.695 116.261 245.339C116.115 243.992 115.612 242.883 114.374 242.78C111.071 242.505 107.218 239.477 107.218 239.477L100.613 242.78Z" fill="#2F2E41"/>
<path d="M92.7602 79.1025C99.1495 79.1025 104.329 73.923 104.329 67.5337C104.329 61.1444 99.1495 55.9648 92.7602 55.9648C86.3709 55.9648 81.1914 61.1444 81.1914 67.5337C81.1914 73.923 86.3709 79.1025 92.7602 79.1025Z" fill="#FFB8B8"/>
<path d="M85.323 71.335C85.323 71.335 77.0595 86.5397 76.3984 86.5397C75.7374 86.5397 91.2727 91.4978 91.2727 91.4978C91.2727 91.4978 95.5697 76.9541 96.2307 75.632L85.323 71.335Z" fill="#FFB8B8"/>
<path d="M97.9995 87.9735C97.9995 87.9735 81.4868 78.8916 79.8355 79.1668C78.1843 79.442 60.5708 94.8538 60.846 101.184C61.1212 107.514 63.3229 117.972 63.3229 117.972C63.3229 117.972 64.1485 147.144 65.7998 147.419C67.451 147.694 65.5246 152.648 66.075 152.648C66.6254 152.648 104.605 152.648 104.88 151.823C105.155 150.997 97.9995 87.9735 97.9995 87.9735Z" fill="#D0CDE1"/>
<path d="M107.219 153.336C107.219 153.336 112.448 169.298 108.045 168.748C103.641 168.198 101.715 154.987 101.715 154.987L107.219 153.336Z" fill="#FFB8B8"/>
<path d="M93.1834 87.0103C93.1834 87.0103 83.0006 89.212 84.6518 102.973C86.3031 116.733 89.3304 130.494 89.3304 130.494L99.5132 152.786L100.614 156.914L108.045 154.987L102.541 123.063C102.541 123.063 100.614 88.9368 98.1372 87.836C96.5752 87.1701 94.8768 86.887 93.1834 87.0103Z" fill="#D0CDE1"/>
<path opacity="0.1" d="M86.9902 130.081L99.6501 152.648L88.984 128.868L86.9902 130.081Z" fill="black"/>
<path d="M104.278 64.1271L104.316 63.2431L106.074 63.6808C106.056 63.397 105.975 63.1206 105.839 62.8709C105.703 62.6211 105.515 62.4038 105.286 62.234L107.16 62.1293C105.588 59.8955 103.579 58.0035 101.256 56.5676C98.9325 55.1316 96.342 54.1815 93.6411 53.7746C89.5891 53.1873 85.0773 54.0372 82.2988 57.0444C80.951 58.503 80.1042 60.3579 79.5018 62.2503C78.3923 65.7356 78.1663 69.8904 80.4798 72.7234C82.831 75.6028 86.9381 76.1668 90.6384 76.5232C91.9403 76.6486 93.3048 76.7652 94.5113 76.2601C94.6455 74.8762 94.4684 73.4798 93.9928 72.1733C93.7947 71.7688 93.7001 71.3216 93.7173 70.8716C93.8818 69.7707 95.3502 69.4934 96.4532 69.6421C97.5563 69.7909 98.8827 70.0184 99.6075 69.1737C100.107 68.5918 100.077 67.7445 100.143 66.9807C100.324 64.9011 104.259 64.5631 104.278 64.1271Z" fill="#2F2E41"/>
<path d="M175.235 246.865C182.68 246.865 188.715 240.83 188.715 233.386C188.715 225.941 182.68 219.906 175.235 219.906C167.791 219.906 161.756 225.941 161.756 233.386C161.756 240.83 167.791 246.865 175.235 246.865Z" fill="#E5B547"/>
<path d="M16.9279 242.163C24.3725 242.163 30.4075 236.128 30.4075 228.683C30.4075 221.239 24.3725 215.204 16.9279 215.204C9.48328 215.204 3.44824 221.239 3.44824 228.683C3.44824 236.128 9.48328 242.163 16.9279 242.163Z" fill="#E5B547"/>
<path d="M16.9278 220.533C22.2949 220.533 26.6457 216.182 26.6457 210.815C26.6457 205.448 22.2949 201.097 16.9278 201.097C11.5608 201.097 7.20996 205.448 7.20996 210.815C7.20996 216.182 11.5608 220.533 16.9278 220.533Z" fill="#E5B547"/>
<path d="M16.9278 202.665C20.7367 202.665 23.8244 199.577 23.8244 195.768C23.8244 191.959 20.7367 188.872 16.9278 188.872C13.1189 188.872 10.0312 191.959 10.0312 195.768C10.0312 199.577 13.1189 202.665 16.9278 202.665Z" fill="#E5B547"/>
</g>
<defs>
<clipPath id="clip0_2231_13827">
<rect width="250" height="261.599" fill="white"/>
</clipPath>
</defs>
</svg>
