<svg width="21" height="21" viewBox="0 0 21 21" fill="none" xmlns="http://www.w3.org/2000/svg">
<path fill-rule="evenodd" clip-rule="evenodd" d="M8.31654 11.7714C8.11084 11.7714 8.00798 11.6685 7.90513 11.5657C7.80228 11.4628 7.69943 11.36 7.69943 11.1543C7.69943 10.9486 7.80228 10.8457 7.90513 10.7429C8.00798 10.64 8.11084 10.5372 8.31654 10.5372C8.52225 10.5372 8.62509 10.64 8.72795 10.7429C8.8308 10.8457 8.93365 10.9486 8.93365 11.1543C8.93365 11.36 8.8308 11.4628 8.72795 11.5657C8.52224 11.7714 8.31654 11.7714 8.31654 11.7714ZM6.97946 10.4343C6.77376 10.4343 6.67091 10.3315 6.56806 10.2286C6.46521 10.1258 6.36235 10.0229 6.36235 9.8172C6.36235 9.6115 6.46521 9.50864 6.56806 9.40579C6.67091 9.30294 6.77376 9.20009 6.97946 9.20009C7.18517 9.20009 7.28802 9.30294 7.39088 9.40579C7.49373 9.50865 7.59658 9.61149 7.59657 9.8172C7.59657 10.0229 7.49372 10.1258 7.39087 10.2286C7.18517 10.4343 7.08231 10.5372 6.97946 10.4343ZM5.64239 11.7714C5.43669 11.7714 5.33384 11.6685 5.23099 11.5657C5.12813 11.4628 5.02528 11.36 5.02528 11.1543C5.02528 10.9486 5.12813 10.8457 5.23098 10.7429C5.33384 10.64 5.43669 10.5372 5.64239 10.5372C5.84809 10.5372 5.95095 10.64 6.0538 10.7429C6.15665 10.8457 6.2595 10.9486 6.2595 11.1543C6.2595 11.36 6.15665 11.4628 6.05379 11.5657C5.95094 11.6685 5.84809 11.7714 5.64239 11.7714ZM5.74524 9.20009C5.53954 9.20009 5.43668 9.09724 5.33383 8.99438C5.23098 8.89153 5.12813 8.78868 5.12813 8.58298C5.12813 8.37728 5.23098 8.27442 5.33383 8.17157C5.43668 8.06871 5.53954 7.96587 5.74525 7.96587C5.95095 7.96587 6.0538 8.06872 6.15665 8.17157C6.2595 8.27442 6.36236 8.37727 6.36236 8.58298C6.36236 8.78868 6.2595 8.89153 6.15665 8.99438C5.95095 9.20009 5.74524 9.20009 5.74524 9.20009ZM4.40817 10.5372C4.20247 10.5372 4.09961 10.4343 3.99676 10.3315C3.89391 10.2286 3.79106 10.1258 3.79106 9.92005C3.79106 9.71435 3.8939 9.61149 3.99676 9.50864C4.09961 9.40579 4.20247 9.30294 4.40817 9.30294C4.61388 9.30294 4.71672 9.40579 4.81957 9.50864C4.92242 9.61149 5.02528 9.71435 5.02528 9.92005C4.81958 10.1258 4.92243 10.2286 4.81957 10.3315C4.71672 10.4343 4.51102 10.4343 4.40817 10.5372ZM4.40817 7.86301C4.20246 7.86301 4.09961 7.76017 3.99676 7.65731C3.89391 7.55446 3.79106 7.45161 3.79106 7.2459C3.79106 7.2459 3.89391 7.14305 3.99676 7.0402C4.09961 6.93735 4.20246 6.83449 4.40817 6.83449C4.61387 6.83449 4.71672 6.93735 4.81958 7.0402C4.92243 7.14305 5.02528 7.2459 5.02528 7.4516C5.02528 7.65731 4.92243 7.76016 4.81958 7.86302C4.71673 7.96587 4.51102 7.96586 4.40817 7.86301ZM3.07109 9.20009C2.86539 9.20009 2.76254 9.09724 2.65969 8.99439C2.55684 8.89154 2.45398 8.78868 2.45398 8.58298C2.45398 8.37727 2.55683 8.27442 2.65969 8.17157C2.76254 8.06872 2.86539 7.96586 3.07109 7.96586C3.2768 7.96586 3.37965 8.06872 3.4825 8.17157C3.58536 8.27443 3.6882 8.37727 3.6882 8.58297C3.6882 8.78868 3.58535 8.89153 3.4825 8.99438C3.37965 9.09723 3.2768 9.20009 3.07109 9.20009ZM3.17395 6.62879C2.96824 6.62879 2.86539 6.52594 2.76253 6.42309C2.65968 6.32023 2.55684 6.21739 2.55684 6.01168C2.55684 5.80598 2.65968 5.70312 2.76254 5.60027C2.86539 5.49742 2.96824 5.39457 3.17395 5.39457C3.37965 5.39457 3.4825 5.49742 3.58535 5.60027C3.6882 5.70312 3.79106 5.80598 3.79106 6.01168C3.79106 6.21738 3.68821 6.32023 3.58535 6.42309C3.4825 6.52594 3.17395 6.62879 3.17395 6.62879ZM11.4021 8.68583C11.4021 8.48013 11.2992 8.37727 11.1964 8.27442C11.0935 8.17157 10.9907 8.06872 10.785 8.06872C10.5793 8.06872 10.4764 8.17157 10.3736 8.27442C10.2707 8.37727 10.1679 8.48013 10.1679 8.68583C10.1679 8.89154 10.2707 8.99438 10.3736 9.09723C10.4764 9.20009 10.5793 9.30294 10.785 9.30294C10.9907 9.30294 11.0935 9.20009 11.1964 9.09724C11.2992 8.99438 11.2992 8.78868 11.4021 8.68583ZM10.065 7.34875C10.065 7.14305 9.96217 7.0402 9.85932 6.93735C9.75647 6.8345 9.65361 6.73164 9.44791 6.73164C9.24221 6.73164 9.13936 6.8345 9.0365 6.93735C8.93365 7.0402 8.8308 7.14305 8.8308 7.34875C8.8308 7.55446 8.93366 7.65731 9.03651 7.76016C9.13936 7.86302 9.2422 7.96586 9.44791 7.96586C9.65361 7.96586 9.75646 7.86301 9.85932 7.76016C9.96217 7.65731 10.065 7.55446 10.065 7.34875ZM11.2992 6.11453C11.2992 5.90883 11.1964 5.80598 11.0935 5.70313C10.9907 5.60027 10.8878 5.49742 10.6821 5.49742C10.4764 5.49742 10.3736 5.60027 10.2707 5.70313C10.1679 5.80598 10.065 5.90883 10.065 6.11453C10.065 6.32023 10.1679 6.42309 10.2707 6.52594C10.3736 6.6288 10.4764 6.73164 10.6821 6.73164C10.8878 6.73164 10.9907 6.62879 11.0935 6.52594C11.2992 6.32023 11.4021 6.21738 11.2992 6.11453ZM8.8308 6.11453C8.8308 5.90883 8.72795 5.80597 8.62509 5.70312C8.52224 5.60027 8.41939 5.49742 8.21369 5.49742C8.00799 5.49742 7.90513 5.60027 7.80228 5.70312C7.69943 5.80597 7.59658 5.90883 7.59658 6.11454C7.59658 6.32024 7.69943 6.42308 7.80228 6.52594C7.90513 6.62879 8.00798 6.73165 8.21369 6.73165C8.41939 6.73165 8.52224 6.62879 8.6251 6.52594C8.72795 6.42309 8.72795 6.21738 8.8308 6.11453ZM10.065 4.88031C10.065 4.67461 9.96217 4.57175 9.85932 4.4689C9.75647 4.36605 9.65362 4.2632 9.44791 4.2632C9.24221 4.2632 9.13935 4.36605 9.0365 4.4689C8.93365 4.57175 8.8308 4.67461 8.8308 4.88031C8.8308 5.08602 8.93365 5.18886 9.0365 5.29172C9.13935 5.39457 9.24221 5.49742 9.44791 5.49742C9.65362 5.49742 9.75647 5.39457 9.85932 5.29172C10.065 5.08601 10.065 4.88031 10.065 4.88031ZM7.49372 4.77746C7.49372 4.57175 7.39088 4.4689 7.28802 4.36605C7.18517 4.2632 7.08232 4.16035 6.87661 4.16035C6.77376 4.2632 6.67091 4.36605 6.56806 4.4689C6.46521 4.57175 6.36235 4.6746 6.36235 4.88031C6.36235 5.08601 6.46521 5.18887 6.56806 5.29172C6.67091 5.39457 6.77376 5.49742 6.97946 5.49742C7.18516 5.49742 7.28802 5.39457 7.39088 5.29172C7.39088 5.08601 7.49372 4.98316 7.49372 4.77746ZM8.72795 3.54323C8.72795 3.33753 8.6251 3.23468 8.52225 3.13183C8.4194 3.02898 8.31654 2.92612 8.11084 2.92612C8.11084 2.92612 8.00798 3.02898 7.90513 3.13183C7.80228 3.23468 7.69943 3.33753 7.69943 3.54323C7.69943 3.74894 7.80228 3.85179 7.90513 3.95464C8.00799 4.0575 8.11083 4.16034 8.31654 4.16034C8.52224 4.16034 8.6251 4.0575 8.72795 3.95465C8.72795 3.74894 8.8308 3.64608 8.72795 3.54323ZM6.2595 3.54324C6.2595 3.33753 6.15665 3.23468 6.0538 3.13183C5.95094 3.02897 5.8481 2.92613 5.64239 2.92613C5.43669 2.92613 5.33383 3.02897 5.23098 3.13182C5.12813 3.23467 5.02528 3.33753 5.02528 3.54324C5.02528 3.74894 5.12813 3.85179 5.23098 3.95464C5.33383 4.05749 5.43669 4.16035 5.64239 4.16035C5.84809 4.16035 5.95095 4.05749 6.0538 3.95464C6.15665 3.85179 6.15665 3.64609 6.2595 3.54324ZM9.24221 9.6115C9.13936 9.71435 9.03651 9.8172 9.03651 10.0229C8.93365 10.1258 9.0365 10.2286 9.13935 10.3315C9.2422 10.4343 9.34506 10.5372 9.55076 10.5372C9.75647 10.5372 9.85932 10.4343 9.96217 10.3315C10.065 10.2286 10.1679 10.1258 10.1679 9.92005C10.1679 9.71435 10.065 9.61149 9.96217 9.50864C9.85932 9.40579 9.75647 9.30294 9.55077 9.30294C9.44791 9.40579 9.34506 9.50865 9.24221 9.6115ZM7.90513 8.27442C7.80228 8.37727 7.69943 8.48012 7.69943 8.68583C7.69943 8.89153 7.80228 8.99439 7.90513 9.09724C8.00799 9.20009 8.11083 9.30294 8.31654 9.30294C8.52224 9.30294 8.6251 9.20009 8.72795 9.09724C8.8308 8.99439 8.93365 8.89153 8.93365 8.68583C8.93365 8.48012 8.8308 8.37728 8.72795 8.27442C8.6251 8.17157 8.52224 8.06871 8.31654 8.06872C8.11084 8.06872 8.00798 8.17157 7.90513 8.27442ZM6.67091 7.0402C6.56806 7.14305 6.46521 7.2459 6.46521 7.45161C6.36236 7.55446 6.4652 7.65731 6.56806 7.76016C6.67091 7.86301 6.77376 7.96587 6.97947 7.96587C7.18517 7.96587 7.28802 7.86301 7.39087 7.76016C7.49372 7.65731 7.59658 7.55446 7.59658 7.34875C7.59658 7.14305 7.49372 7.0402 7.39087 6.93735C7.28802 6.83449 7.18517 6.73165 6.97947 6.73165C6.87662 6.8345 6.77376 6.93735 6.67091 7.0402ZM5.33383 5.70312C5.23098 5.80598 5.12813 5.90883 5.12813 6.11453C5.12813 6.32023 5.23098 6.42309 5.33384 6.52594C5.43669 6.62879 5.53954 6.73164 5.74524 6.73164C5.95094 6.73164 6.0538 6.62879 6.15665 6.52594C6.2595 6.42309 6.36235 6.32023 6.36235 6.11453C6.36235 5.90882 6.2595 5.80598 6.15665 5.70313C6.0538 5.60027 5.95095 5.49742 5.74524 5.49742C5.53954 5.49742 5.43669 5.60027 5.33383 5.70312ZM3.99676 4.36605C3.8939 4.4689 3.79106 4.57176 3.79106 4.77746C3.79106 4.98316 3.89391 5.08601 3.99676 5.18886C4.09961 5.29171 4.20247 5.39457 4.40817 5.39457C4.61387 5.39457 4.71672 5.29172 4.81957 5.18886C4.92243 5.08601 5.02528 4.98316 5.02528 4.77746C5.02528 4.57175 4.92242 4.4689 4.81957 4.36605C4.71672 4.2632 4.61388 4.16035 4.40817 4.16035C4.30532 4.2632 4.09961 4.26319 3.99676 4.36605ZM19.2188 19.5881L18.4989 20.3081L14.3848 16.194C14.0762 15.8855 13.562 15.7826 13.0477 15.4741C10.2707 14.3427 5.23098 15.0626 2.04257 11.8742C0.0883888 9.92005 -0.631571 7.34876 0.808355 4.67461C1.11691 3.95464 1.63117 3.23468 2.35113 2.51472C3.07109 1.79475 3.79106 1.2805 4.51102 0.97194C7.18517 -0.467986 9.75647 0.251974 11.7107 2.20616C14.8991 5.39457 14.282 10.5372 15.3105 13.2113C15.5162 13.6227 15.619 14.137 16.0304 14.5484L20.1445 18.6625L19.2188 19.5881ZM11.7106 12.0799C11.0935 12.697 10.5793 13.0056 9.75647 13.417C9.65362 13.5199 9.55076 13.6227 9.65362 13.7256C9.75647 13.8284 9.96217 13.8284 10.1679 13.8284C11.2992 13.9313 12.3278 14.3427 13.4591 14.4455L13.562 14.3427L13.7677 14.137L13.9734 13.9313L14.0762 13.8284C13.8705 12.5942 13.562 11.6685 13.4591 10.5372C13.4591 10.3315 13.4591 10.1258 13.3563 10.0229C13.2534 9.92005 13.1506 10.0229 13.0477 10.1258C12.6363 10.9486 12.3278 11.6685 11.7106 12.0799Z" fill="white"/>
</svg>
