<svg width="21" height="21" viewBox="0 0 21 21" fill="none" xmlns="http://www.w3.org/2000/svg">
<path fill-rule="evenodd" clip-rule="evenodd" d="M12.1775 12.099C12.712 11.5645 12.9124 11.2304 13.3133 10.5623C13.7142 12.2994 14.3823 13.5021 15.2509 14.9052L15.1173 15.0388L15.0505 15.1056C13.5806 14.3038 12.4447 13.5689 10.7076 13.168C11.3089 12.8339 11.643 12.6335 12.1775 12.099ZM19.527 19.4485L18.9256 20.0498L15.1841 16.3082C14.1819 15.4397 12.6452 14.7047 11.4426 14.3039C8.50277 13.3685 6.29794 14.3707 3.29134 11.7649C2.22233 10.8296 0.551993 8.35745 1.01969 5.61811C1.22013 4.61591 1.5542 3.4801 2.48959 2.54472C3.49178 1.54252 4.69442 1.14163 5.76343 1.008C8.43596 0.60712 10.7744 2.27747 11.7766 3.27967C14.4492 6.21945 13.447 8.42429 14.3155 11.4309C14.7164 12.6335 15.5182 14.237 16.3199 15.1724L20.0615 18.914L19.527 19.4485ZM3.35814 3.14602L4.15991 3.94779L4.76123 3.34646L4.02628 2.61151C3.75903 2.74514 3.55858 2.94558 3.35814 3.14602ZM4.15991 2.47789L4.89486 3.21284L5.49617 2.61152L4.96167 2.07703C4.69442 2.21065 4.42716 2.34426 4.15991 2.47789ZM5.09529 2.07701L5.56299 2.54471L6.1643 1.94339C5.83024 1.87658 5.49617 1.94338 5.09529 2.07701ZM6.43156 1.80977L6.96606 2.4779L7.50057 1.94339C7.50057 1.94339 7.56739 2.0102 7.6342 1.94339C7.23332 1.94339 6.83244 1.80977 6.43156 1.80977ZM7.90144 2.07702L8.36914 2.54472L8.6364 2.27746C8.43596 2.21064 8.1687 2.07702 7.90144 2.07702ZM8.83682 2.34426L8.56958 2.61151L9.17091 3.21285L9.6386 2.74516C9.37135 2.61153 9.10408 2.47789 8.83682 2.34426ZM9.7054 2.81196L9.23771 3.27965L9.83904 3.88098L10.4404 3.27967C10.1731 3.14604 9.97265 2.94558 9.7054 2.81196ZM10.5072 3.48009L9.90584 4.08141L10.5072 4.68273L11.1085 4.0814C11.0417 4.01459 10.908 3.88097 10.8412 3.81415C10.7744 3.61371 10.6408 3.48009 10.5072 3.48009ZM11.1753 4.14822L10.574 4.74955L11.1753 5.35086L11.7098 4.81635C11.5762 4.5491 11.3757 4.34866 11.1753 4.14822ZM11.7098 4.81635C11.7766 4.88317 11.7766 4.88317 11.7098 4.81635C11.7766 4.88317 11.7766 4.88317 11.7098 4.81635ZM11.8434 4.94999L11.3757 5.41768L11.9771 6.01899L12.2443 5.75174C12.1107 5.48449 11.9771 5.21724 11.8434 4.94999ZM12.3111 5.81856C12.2443 5.88538 12.2443 5.88538 12.3111 5.81856L12.1107 6.15263L12.6452 6.68713C12.5116 6.41987 12.3779 6.15263 12.3111 5.81856ZM12.6452 6.95438L12.0439 7.55571L12.6452 8.15703L12.712 8.09021M12.712 8.09021C12.712 8.22383 12.7788 8.15702 12.712 8.09021C12.712 8.22383 12.7788 8.15702 12.712 8.09021ZM12.712 8.22384C12.7788 8.29066 12.7788 8.29066 12.712 8.22384C12.7788 8.29066 12.7788 8.29066 12.712 8.22384ZM12.712 8.35747C12.712 8.35747 12.7788 8.42428 12.712 8.35747L11.9771 8.95878L12.4447 9.42646C12.6452 9.0924 12.712 8.75835 12.712 8.35747ZM12.5116 9.62692L11.9771 9.09242L11.3757 9.69373L12.1775 10.4955M12.0439 10.4955L11.9771 10.5623C12.0439 10.4955 12.0439 10.4955 12.0439 10.4955ZM12.0439 10.6291L11.2421 9.82736L10.6408 10.4287L11.5094 11.2972C11.7098 11.0968 11.8434 10.8295 12.0439 10.6291ZM11.4426 11.3641L10.574 10.4955L9.97267 11.0968L10.7744 11.8986C10.9749 11.6981 11.2421 11.5645 11.4426 11.3641ZM10.574 11.9654L9.77223 11.1636L9.17091 11.7649L9.70541 12.2994C10.0395 12.2326 10.3067 12.099 10.574 11.9654ZM9.63859 12.3663L9.17091 11.8986L8.50278 12.5667L8.56958 12.6335C8.90364 12.5667 9.23771 12.4999 9.63859 12.3663ZM8.23552 12.5667L8.30233 12.4999L7.70101 11.8986L7.0997 12.4999C7.43376 12.5667 7.83464 12.5667 8.23552 12.5667ZM6.76562 12.4331L6.23112 11.8986L5.96386 12.1658C5.96386 12.1658 5.96386 12.1658 5.89705 12.099C6.23111 12.2994 6.56518 12.3662 6.76562 12.4331ZM5.89705 12.099L6.1643 11.8317L5.56299 11.2304L5.0953 11.6981C5.36255 11.8317 5.62979 11.9654 5.89705 12.099ZM4.96166 11.5645L5.49616 11.03L4.89485 10.4287L4.29353 11.03M4.22671 11.0968L4.1599 11.03L4.22671 11.0968ZM4.1599 11.03L4.76122 10.4287L4.15991 9.82735L3.55858 10.4287C3.69221 10.5623 3.75902 10.6291 3.89265 10.7627C3.95946 10.8296 4.02627 10.8964 4.1599 11.03ZM3.42497 10.2951L4.02629 9.69373L3.42496 9.0924L2.95727 9.56009M2.89047 9.49329L3.35816 9.0256L2.75682 8.42426L2.48957 8.69152C2.62319 8.95878 2.75684 9.22604 2.89047 9.49329ZM2.48957 8.69152C2.42275 8.62471 2.42275 8.62471 2.48957 8.69152C2.42275 8.62471 2.42275 8.62471 2.48957 8.69152ZM2.42277 8.49109L2.69002 8.22384L2.22232 7.75614C2.22232 8.02339 2.35595 8.29065 2.42277 8.49109ZM2.22232 7.75614C2.1555 7.68933 2.1555 7.68933 2.22232 7.75614C2.1555 7.68933 2.1555 7.68933 2.22232 7.75614ZM2.0887 7.62253C2.15552 7.55571 2.15552 7.55571 2.0887 7.62253C2.15552 7.55571 2.15552 7.55571 2.0887 7.62253ZM2.0887 7.48889L2.6232 6.82076L2.02188 6.21945L1.95508 6.28625C1.95508 6.68713 2.02189 7.15483 2.0887 7.48889ZM2.02188 6.08581L2.69002 5.41768L2.22232 4.94998C2.08869 5.35086 2.02188 5.68493 2.02188 6.08581ZM2.22234 4.81636L2.75683 5.35086L3.35815 4.74955L2.6232 4.0146M2.6232 4.0146L2.69002 3.94778C2.69002 3.94778 2.69001 3.94778 2.6232 4.0146ZM2.75682 3.88097L3.49177 4.61592L4.0931 4.0146L3.29133 3.21283C3.09089 3.41327 2.82364 3.68053 2.75682 3.88097ZM4.22672 4.01461L4.82804 4.61592L5.42936 4.0146L4.82805 3.41328L4.22672 4.01461ZM4.96167 3.27966L5.56299 3.88097L6.1643 3.27966L5.56299 2.67834L4.96167 3.27966ZM5.62981 2.61152L6.23112 3.21284L6.83244 2.61152L6.23112 2.01021L5.62981 2.61152ZM2.0887 6.15263L2.69002 6.75394L3.29133 6.15263L2.69002 5.55131L2.0887 6.15263ZM2.82365 5.41768L3.42497 6.01899L4.02628 5.41768L3.42497 4.81636L2.82365 5.41768ZM3.55859 4.68274L4.15991 5.28405L4.76123 4.68273L4.15992 4.08141L3.55859 4.68274ZM4.96167 4.74956L5.56299 5.35087L6.16431 4.74955L5.563 4.14823L4.96167 4.74956ZM5.69662 4.01461L6.29794 4.61592L6.89925 4.01461L6.29794 3.41329L5.69662 4.01461ZM6.36476 3.34647L6.96607 3.94779L7.56739 3.34647L6.96607 2.74516L6.36476 3.34647ZM7.0997 2.61153L7.70101 3.21285L8.30234 2.61152L7.70102 2.01021L7.0997 2.61153ZM2.15552 7.55571L2.75683 8.15703L3.35815 7.55571L2.75683 6.9544L2.15552 7.55571ZM2.82365 6.88758L3.42497 7.48889L4.02628 6.88758L3.42497 6.28626L2.82365 6.88758ZM3.5586 6.15263L4.15992 6.75394L4.76123 6.15263L4.15992 5.55131L3.5586 6.15263ZM4.29354 5.41769L4.89486 6.019L5.49618 5.41768L4.89487 4.81636L4.29354 5.41769ZM5.6966 5.48449L6.29794 6.08582L6.89926 5.4845L6.29793 4.88316L5.6966 5.48449ZM6.43155 4.74954L7.03289 5.35087L7.6342 4.74956L7.03287 4.14822L6.43155 4.74954ZM7.09969 4.0814L7.70102 4.68274L8.30234 4.08142L7.701 3.48009L7.09969 4.0814ZM7.83463 3.34646L8.43596 3.9478L9.03729 3.34647L8.43595 2.74514L7.83463 3.34646ZM2.89045 8.29064L3.49178 8.89198L4.0931 8.29066L3.49176 7.68932L2.89045 8.29064ZM3.55858 7.62251L4.15992 8.22384L4.76123 7.62253L4.1599 7.02119L3.55858 7.62251ZM4.29353 6.88756L4.89487 7.48889L5.49618 6.88758L4.89485 6.28624L4.29353 6.88756ZM5.02847 6.15262L5.62981 6.75395L6.23113 6.15263L5.6298 5.55129L5.02847 6.15262ZM6.36474 6.15262L6.96607 6.75395L7.5674 6.15263L6.96606 5.55129L6.36474 6.15262ZM7.09969 5.41767L7.70102 6.019L8.30234 5.41769L7.701 4.81635L7.09969 5.41767ZM7.76782 4.74954L8.36915 5.35087L8.97047 4.74956L8.36913 4.14822L7.76782 4.74954ZM8.50276 4.0146L9.10409 4.61593L9.70542 4.01461L9.10408 3.41327L8.50276 4.0146ZM3.55858 8.95877L4.15992 9.56011L4.76123 8.95879L4.1599 8.35746L3.55858 8.95877ZM4.22671 8.29064L4.82805 8.89198L5.42936 8.29066L4.82803 7.68932L4.22671 8.29064ZM4.96166 7.55569L5.563 8.15703L6.16431 7.55571L5.56298 6.95437L4.96166 7.55569ZM5.6966 6.82075L6.29794 7.42209L6.89926 6.82076L6.29793 6.21942L5.6966 6.82075ZM7.09969 6.88757L7.701 7.48888L8.30233 6.88756L7.70101 6.28624L7.09969 6.88757ZM7.83464 6.15262L8.43595 6.75393L9.03727 6.15262L8.43595 5.5513L7.83464 6.15262ZM8.50277 5.48449L9.10408 6.0858L9.7054 5.48449L9.10408 4.88317L8.50277 5.48449ZM9.23771 4.74955L9.83902 5.35086L10.4403 4.74954L9.83903 4.14822L9.23771 4.74955ZM4.29353 9.69372L4.89485 10.295L5.49616 9.69372L4.89485 9.09241L4.29353 9.69372ZM4.96166 9.02559L5.56298 9.6269L6.16429 9.02559L5.56298 8.42427L4.96166 9.02559ZM5.69661 8.29064L6.29793 8.89195L6.89924 8.29064L6.29793 7.68932L5.69661 8.29064ZM6.43155 7.5557L7.03287 8.15702L7.63419 7.55569L7.03288 6.95437L6.43155 7.5557ZM12.5116 8.29065L11.9102 7.68933L11.3089 8.29065L11.9102 8.89197L12.5116 8.29065ZM11.8434 8.95878L11.2421 8.35747L10.6408 8.95878L11.2421 9.5601L11.8434 8.95878ZM11.1085 9.69372L10.5072 9.09241L9.90585 9.69373L10.5072 10.295L11.1085 9.69372ZM10.4404 10.3619L9.83904 9.76054L9.23772 10.3619L9.83903 10.9632L10.4404 10.3619ZM9.70541 11.0968L9.10409 10.4955L8.50278 11.0968L9.10409 11.6981L9.70541 11.0968ZM9.03728 11.7649L8.43596 11.1636L7.76783 11.8318L8.36914 12.4331L9.03728 11.7649ZM12.5784 6.88757L11.9771 6.28625L11.3757 6.88758L11.9771 7.48889L12.5784 6.88757ZM11.8434 7.62252L11.2421 7.0212L10.6408 7.62252L11.2421 8.22383L11.8434 7.62252ZM11.1753 8.29065L10.574 7.68934L9.97267 8.29065L10.574 8.89196L11.1753 8.29065ZM10.4404 9.02559L9.83904 8.42427L9.23772 9.0256L9.83903 9.62691L10.4404 9.02559ZM9.77223 9.69372L9.17091 9.09241L8.56959 9.69373L9.1709 10.295L9.77223 9.69372ZM9.03728 10.4287L8.43596 9.82736L7.83465 10.4287L8.43596 11.03L9.03728 10.4287ZM8.36914 11.0968L7.76783 10.4955L7.0997 11.1636L7.70101 11.7649L8.36914 11.0968ZM7.63419 11.8318L7.03288 11.2304L6.43156 11.8318L7.03288 12.4331L7.63419 11.8318ZM11.8434 6.15262L11.2421 5.5513L10.6408 6.15263L11.2421 6.75394L11.8434 6.15262ZM11.1085 6.88757L10.5072 6.28625L9.90585 6.88757L10.5072 7.48888L11.1085 6.88757ZM10.4403 7.5557L9.83903 6.95439L9.23772 7.5557L9.83903 8.15702L10.4403 7.5557ZM9.70541 8.29064L9.10409 7.68932L8.50277 8.29065L9.10408 8.89197L9.70541 8.29064ZM9.03728 8.95877L8.43596 8.35746L7.83464 8.95878L8.43595 9.5601L9.03728 8.95877ZM8.30233 9.69372L7.70101 9.09241L7.0997 9.69372L7.70101 10.295L8.30233 9.69372ZM7.63419 10.3619L7.03288 9.76054L6.36475 10.4287L6.96606 11.03L7.63419 10.3619ZM6.89924 11.0968L6.29793 10.4955L5.69661 11.0968L6.29793 11.6981L6.89924 11.0968ZM11.1085 5.41767L10.5072 4.81635L9.90584 5.41768L10.5072 6.01899L11.1085 5.41767ZM10.3735 6.15262L9.77222 5.5513L9.1709 6.15262L9.77222 6.75393L10.3735 6.15262ZM9.7054 6.82075L9.10408 6.21944L8.50277 6.82075L9.10408 7.42207L9.7054 6.82075ZM8.97046 7.55569L8.36914 6.95437L7.76782 7.5557L8.36913 8.15702L8.97046 7.55569ZM8.30233 8.22382L7.70101 7.62251L7.09969 8.22383L7.701 8.82515L8.30233 8.22382ZM7.56738 8.95877L6.96606 8.35746L6.36475 8.95877L6.96606 9.56009L7.56738 8.95877ZM6.89924 9.62691L6.29793 9.02559L5.6298 9.69372L6.23111 10.295L6.89924 9.62691ZM6.16429 10.3619L5.56298 9.76054L4.96166 10.3619L5.56298 10.9632L6.16429 10.3619ZM2.6232 4.0146C2.48957 4.28185 2.35596 4.54911 2.22234 4.81636L2.6232 4.0146ZM2.95727 9.56009C3.09089 9.82734 3.29134 10.0278 3.49178 10.2282L2.95727 9.56009ZM4.22671 11.0968C4.42715 11.2972 4.69441 11.4309 4.89485 11.6313L4.22671 11.0968ZM12.0439 10.4955C12.1775 10.2282 12.3111 9.96098 12.4448 9.69372L12.0439 10.4955ZM12.712 8.09021C12.712 7.68933 12.6452 7.35527 12.5784 7.0212L12.712 8.09021Z" fill="white"/>
</svg>
