<svg width="74" height="74" viewBox="0 0 74 74" fill="none" xmlns="http://www.w3.org/2000/svg">
<circle cx="37" cy="37" r="36" fill="#3C3E4A" stroke="#EEEEEE" stroke-width="2"/>
<path d="M37 1C17.128 1 1 17.128 1 37C1 56.872 17.128 73 37 73C56.872 73 73 56.872 73 37C73 17.128 56.872 1 37 1ZM37 11.8C42.976 11.8 47.8 16.624 47.8 22.6C47.8 28.576 42.976 33.4 37 33.4C31.024 33.4 26.2 28.576 26.2 22.6C26.2 16.624 31.024 11.8 37 11.8ZM37 62.92C28 62.92 20.044 58.312 15.4 51.328C15.508 44.164 29.8 40.24 37 40.24C44.164 40.24 58.492 44.164 58.6 51.328C53.956 58.312 46 62.92 37 62.92Z" fill="#EEEEEE"/>
<circle cx="61" cy="61" r="12" fill="#E5B547" stroke="#3C3E4A" stroke-width="2"/>
<path fill-rule="evenodd" clip-rule="evenodd" d="M63.898 56.2H65.8C66.46 56.2 67 56.74 67 57.4V64.6C67 65.26 66.46 65.8 65.8 65.8H56.2C55.54 65.8 55 65.26 55 64.6V57.4C55 56.74 55.54 56.2 56.2 56.2H58.102L58.84 55.39C59.068 55.144 59.392 55 59.728 55H62.272C62.608 55 62.932 55.144 63.154 55.39L63.898 56.2ZM58 61C58 62.656 59.344 64 61 64C62.656 64 64 62.656 64 61C64 59.344 62.656 58 61 58C59.344 58 58 59.344 58 61ZM62.8 61C62.8 61.9941 61.9941 62.8 61 62.8C60.0059 62.8 59.2 61.9941 59.2 61C59.2 60.0059 60.0059 59.2 61 59.2C61.9941 59.2 62.8 60.0059 62.8 61Z" fill="#EEEEEE"/>
</svg>
