<svg width="120" height="24" viewBox="0 0 120 24" fill="none" xmlns="http://www.w3.org/2000/svg">
<path fill-rule="evenodd" clip-rule="evenodd" d="M7.09263 12.3741L7.11348 12.3651C7.22301 12.3159 18.0826 7.41741 18.98 4.97721C19.0476 4.79313 19.0498 4.63909 18.9865 4.50635C18.791 4.09654 17.7895 3.40923 13.2751 3.40923C9.2438 3.40923 4.55223 3.95595 4.50553 3.96155L4.42773 3.97077L1.74964 1.47642L2.07931 1.41559C2.15582 1.40145 9.81352 3.8147e-06 17.1824 3.8147e-06C28.1093 3.8147e-06 32.2827 3.15325 32.455 3.28762L32.6755 3.45955L0 18.2234L7.09263 12.3741ZM25.337 18.7568L27.4522 11.1079L33.1676 6.14897H52.0281L47.6511 9.98003H32.7493L32.6017 10.5374H45.2598L44.228 14.3892H31.5718L31.4246 14.9467H46.1229L45.089 18.7568H25.337ZM65.4753 18.7568L55.7425 11.7994L53.878 18.7568H48.824L52.2107 6.14897H56.8227L66.6616 13.1295L68.5471 6.14897H73.6007L70.2141 18.7568H65.4753ZM71.1087 18.7568L72.1428 14.9467H88.3515L88.7306 13.5198L87.497 14.3892H72.2873L74.4968 6.14897H79.5506L78.3732 10.5374H89.5712L90.7486 6.14897H95.7604L92.821 17.1248L90.1574 18.7568H71.1087ZM95.1175 18.7568L93.6788 17.3684L96.3343 7.47074L98.3422 6.14897H120L115.623 9.98003H100.72L99.3971 14.9467H114.095L113.061 18.7568H95.1175ZM15.7517 23.3058C4.82482 23.3058 0.65149 20.1523 0.4792 20.0178L0.258777 19.8462L32.9342 5.08216L25.8419 10.9316L25.821 10.9407C25.7114 10.9899 14.8516 15.8883 13.9544 18.3285C13.8866 18.5125 13.8844 18.6665 13.9477 18.7995C14.1433 19.2093 15.145 19.8966 19.6592 19.8966C23.6912 19.8963 28.3819 19.3498 28.4289 19.3442L28.5065 19.3351L31.1845 21.8291L30.855 21.8903C30.7783 21.9044 23.121 23.3058 15.7517 23.3058Z" fill="#EEEEEE"/>
</svg>
